<svg id="Layer_1" xmlns="http://www.w3.org/2000/svg" xmlns:xlink="http://www.w3.org/1999/xlink" x="0px" y="0px" viewBox="0 0 922.7 1024.03" xml:space="preserve" src="[object Object]" alt="Fanfare Icon" class="sc-OVzLa jbeClO" width="922.7"  height="1024.03" ><style type="text/css">
	.st_0{fill:#ff5a93;}
	</style><g><path class="st_0" d="M246.14,227.29c7.45-7.76,14.89-15.54,22.36-23.28c10.04-10.39,20.11-20.76,30.16-31.13 c24.52-25.29,49.03-50.58,73.56-75.86c22.82-23.51,45.66-47,68.5-70.49c5.79-5.96,11.59-11.92,17.47-17.8 c0.67-0.67,1.81-0.89,2.78-1.2c0.49-0.15,1.07-0.03,1.61-0.03c149.76,0,299.51,0,449.27,0c0.86,0,1.72,0,2.58,0 c0.16,0.23,0.32,0.46,0.48,0.7c-1.06,0.9-2.19,1.73-3.16,2.72c-11.51,11.78-23,23.58-34.48,35.4 c-16.19,16.67-32.35,33.36-48.53,50.03c-30.17,31.06-60.35,62.1-90.51,93.16c-8.85,9.11-17.68,18.24-26.53,27.34 c-0.48,0.5-1.1,0.87-1.66,1.3c-0.21,0.31-0.42,0.62-0.63,0.93c0,0-0.12,0.13-0.12,0.13c-0.31,0.33-0.63,0.67-0.94,1 c0,0-0.09,0.11-0.09,0.11c-0.14,0.15-0.28,0.3-0.43,0.45c0,0-0.08,0.1-0.08,0.1c-0.15,0.16-0.3,0.32-0.45,0.48 c0,0-0.06,0.05-0.06,0.05c-0.34,0.35-0.68,0.7-1.02,1.05c0,0-0.03,0.04-0.03,0.04c-0.17,0.17-0.33,0.34-0.5,0.51 c0,0-0.03,0.03-0.03,0.03c-0.17,0.17-0.34,0.34-0.51,0.51c0,0-0.03,0.03-0.03,0.03c-0.17,0.17-0.34,0.34-0.51,0.51 c0,0-0.03,0.02-0.03,0.02c-0.35,0.35-0.7,0.7-1.05,1.05c0,0-0.02,0.02-0.02,0.02c-0.17,0.17-0.35,0.35-0.52,0.52 c0,0-0.01,0.01-0.01,0.01c-0.18,0.18-0.35,0.35-0.53,0.53l-0.01,0.01c-0.18,0.17-0.35,0.35-0.53,0.52c0,0-0.02,0.02-0.02,0.02 c-0.17,0.18-0.35,0.35-0.52,0.53c0,0-0.01,0.01-0.01,0.01c-0.18,0.18-0.35,0.36-0.53,0.54c0,0,0,0,0,0 c-0.18,0.18-0.36,0.36-0.54,0.53c0,0,0,0,0,0c-0.18,0.18-0.36,0.36-0.54,0.54c0,0,0.01-0.01,0.01-0.01 c-0.36,0.37-0.72,0.73-1.08,1.1c0,0,0.02-0.02,0.02-0.02c-0.19,0.19-0.37,0.37-0.56,0.56c0,0,0.02-0.02,0.02-0.02 c-0.18,0.19-0.37,0.38-0.55,0.56c0,0,0.02-0.02,0.02-0.02c-0.19,0.2-0.38,0.39-0.57,0.59c-0.14,0.17-0.28,0.33-0.42,0.5 c-0.21-0.02-0.42-0.05-0.63-0.07c-1.21-0.16-2.43-0.46-3.64-0.46c-148.49-0.02-296.97-0.02-445.46-0.02c-0.9,0-1.82,0.11-2.68-0.05 c-0.48-0.09-0.87-0.65-1.3-0.99c0,0,0.01-0.02,0.01-0.02c0.17-0.17,0.34-0.35,0.52-0.52c0,0,0.02-0.02,0.02-0.02 c0.17-0.17,0.34-0.35,0.51-0.52c0,0,0.02-0.02,0.02-0.02c0.17-0.18,0.34-0.36,0.51-0.54c0,0,0.01-0.01,0.01-0.01 c0.18-0.18,0.35-0.36,0.53-0.54c0,0,0,0,0,0c0.18-0.18,0.36-0.36,0.53-0.54l0,0C245.77,227.66,245.95,227.47,246.14,227.29z" fill="#FF5A93"></path><path class="st_0" d="M407.34,747.62c1.78,1.79,3.55,3.57,5.33,5.36c0.42,0.28,0.84,0.56,1.26,0.84c0,0,0.1,0.13,0.1,0.13 c0.13,0.13,0.26,0.25,0.39,0.38c0,0,0.12,0.1,0.12,0.1c0.26,0.26,0.53,0.53,0.79,0.79c0,0-0.02-0.02-0.02-0.02 c0.44,0.44,0.88,0.87,1.32,1.31c0,0,0.07,0.07,0.07,0.07c0.26,0.27,0.52,0.53,0.78,0.8c0,0-0.03-0.02-0.03-0.02 c0.19,0.19,0.38,0.38,0.57,0.57c0,0-0.02-0.03-0.02-0.03c0.27,0.26,0.53,0.52,0.8,0.78c0,0,0.05,0.06,0.05,0.06 c0.26,0.27,0.52,0.53,0.78,0.8c0,0-0.03-0.02-0.03-0.02c0.19,0.19,0.38,0.38,0.57,0.57c0,0-0.02-0.03-0.02-0.03 c0.44,0.55,0.88,1.1,1.32,1.65c10.67,10.76,21.33,21.52,32.13,32.41c-0.48,0.53-0.98,1.13-1.53,1.68 c-72.55,72.52-145.11,145.04-217.63,217.59c-1.72,1.72-2.78,1.84-4.57,0.05c-73.2-73.3-146.46-146.55-219.69-219.82 c-0.88-0.88-1.65-1.88-2.47-2.83c7.73-7.77,15.65-15.79,23.62-23.75c65.35-65.29,130.7-130.57,196.05-195.85 c0.44-0.44,0.93-0.83,1.39-1.24c0.59,0.17,1.17,0.34,1.76,0.51c0,0-0.03-0.02-0.03-0.02c0.19,0.19,0.38,0.38,0.56,0.57 c0,0-0.02-0.03-0.02-0.03c0.36,0.37,0.73,0.73,1.09,1.1c0,0-0.03-0.02-0.03-0.02c0.19,0.19,0.38,0.37,0.57,0.56 c0,0-0.03-0.03-0.03-0.03c0.19,0.19,0.38,0.38,0.57,0.57c0,0-0.02-0.03-0.02-0.03c0.36,0.37,0.73,0.73,1.09,1.1 c0,0-0.02-0.02-0.02-0.02c0.19,0.19,0.38,0.38,0.57,0.56c0,0-0.03-0.03-0.03-0.03c0.19,0.19,0.38,0.38,0.57,0.57 c0,0-0.02-0.02-0.02-0.02c0.54,0.54,1.09,1.09,1.63,1.63c0,0-0.03-0.02-0.03-0.02c0.19,0.19,0.38,0.38,0.57,0.56 c0,0-0.03-0.03-0.03-0.03c0.19,0.19,0.38,0.38,0.57,0.57c0,0-0.02-0.02-0.02-0.02c0.36,0.37,0.73,0.73,1.09,1.1 c0,0-0.02-0.02-0.02-0.02c0.19,0.19,0.38,0.38,0.57,0.56c0,0-0.03-0.03-0.03-0.03c0.19,0.19,0.38,0.38,0.57,0.56 c0,0-0.02-0.03-0.02-0.03c0.36,0.37,0.73,0.73,1.09,1.1c0,0-0.02-0.02-0.02-0.02c0.19,0.19,0.38,0.37,0.57,0.56 c0,0-0.03-0.03-0.03-0.03c0.19,0.19,0.38,0.38,0.57,0.57c0,0-0.03-0.03-0.03-0.03c0.19,0.19,0.38,0.38,0.56,0.57 c0,0-0.02-0.03-0.02-0.03c0.37,0.36,0.73,0.73,1.1,1.09c0,0-0.03-0.02-0.03-0.02c0.19,0.19,0.38,0.37,0.57,0.56 c0,0-0.03-0.03-0.03-0.03c0.19,0.19,0.38,0.38,0.56,0.57c0,0-0.02-0.03-0.02-0.03c0.36,0.37,0.73,0.73,1.09,1.1 c0,0-0.02-0.02-0.02-0.02c0.19,0.19,0.38,0.37,0.57,0.56c0,0-0.03-0.03-0.03-0.03c0.19,0.19,0.37,0.38,0.56,0.57 c0,0-0.02-0.02-0.02-0.02c0.36,0.36,0.73,0.73,1.09,1.09c0,0-0.02-0.02-0.02-0.02c0.19,0.19,0.38,0.38,0.57,0.56 c0,0-0.03-0.03-0.03-0.03c0.19,0.19,0.38,0.38,0.57,0.56c0,0-0.03-0.03-0.03-0.03c0.19,0.19,0.38,0.38,0.56,0.57 c0,0-0.02-0.02-0.02-0.02c0.36,0.37,0.73,0.73,1.09,1.1c0,0-0.03-0.02-0.03-0.02c0.19,0.19,0.38,0.37,0.57,0.56 c0,0-0.03-0.03-0.03-0.03c0.19,0.19,0.38,0.38,0.57,0.57c0,0-0.02-0.03-0.02-0.03c0.36,0.37,0.73,0.73,1.09,1.1 c0,0-0.03-0.02-0.02-0.02c0.19,0.19,0.38,0.37,0.57,0.56c0,0-0.03-0.03-0.03-0.03c0.19,0.19,0.37,0.38,0.56,0.57 c0,0-0.02-0.02-0.02-0.02c0.37,0.36,0.73,0.73,1.1,1.09c0,0-0.02-0.02-0.02-0.02c0.19,0.19,0.38,0.38,0.57,0.57 c0,0-0.03-0.03-0.03-0.03c0.19,0.19,0.38,0.38,0.57,0.56c0,0-0.02-0.02-0.02-0.02c0.54,0.54,1.09,1.09,1.63,1.63 c0,0-0.02-0.02-0.02-0.02c0.19,0.19,0.38,0.38,0.57,0.57c0,0-0.03-0.03-0.03-0.03c0.19,0.19,0.38,0.38,0.57,0.57 c0,0-0.02-0.03-0.02-0.03c0.36,0.37,0.73,0.73,1.09,1.1c0,0-0.02-0.02-0.02-0.02c0.19,0.19,0.38,0.37,0.57,0.56 c0,0-0.03-0.03-0.03-0.03c0.19,0.19,0.38,0.38,0.57,0.57c0,0-0.03-0.03-0.03-0.03c0.19,0.19,0.37,0.38,0.56,0.57 c0,0-0.03-0.03-0.03-0.03c0.19,0.19,0.38,0.38,0.57,0.56c0,0-0.03-0.03-0.03-0.03c0.19,0.19,0.38,0.38,0.57,0.56 c0,0-0.03-0.03-0.03-0.03c0.19,0.19,0.38,0.38,0.57,0.56c0,0-0.03-0.03-0.03-0.03c0.19,0.19,0.38,0.38,0.57,0.57 c0,0-0.02-0.03-0.02-0.03c0.37,0.36,0.73,0.73,1.1,1.09c0,0-0.02-0.02-0.02-0.02c0.19,0.19,0.38,0.38,0.56,0.57 c0,0-0.03-0.03-0.03-0.03c0.19,0.19,0.38,0.38,0.56,0.57c0,0-0.02-0.03-0.02-0.03c0.36,0.37,0.73,0.73,1.09,1.1 c0,0-0.03-0.02-0.03-0.02c0.19,0.19,0.38,0.37,0.57,0.56c0,0-0.03-0.03-0.03-0.03c0.19,0.19,0.38,0.38,0.56,0.57 c0,0-0.02-0.03-0.02-0.03c0.37,0.37,0.73,0.73,1.1,1.1c0,0-0.03-0.02-0.03-0.02c0.19,0.19,0.38,0.38,0.57,0.56 c0,0-0.03-0.03-0.03-0.03c0.19,0.19,0.38,0.38,0.57,0.56c0,0-0.03-0.03-0.03-0.03c0.19,0.19,0.38,0.38,0.56,0.57 c0,0-0.02-0.03-0.02-0.03c0.36,0.37,0.73,0.73,1.09,1.1c0,0-0.03-0.02-0.03-0.02c0.19,0.19,0.38,0.38,0.57,0.56 c0,0-0.03-0.03-0.03-0.03c0.19,0.19,0.37,0.38,0.56,0.57c0,0-0.02-0.03-0.02-0.03c0.37,0.37,0.73,0.73,1.1,1.1 c0,0-0.03-0.02-0.03-0.02c0.19,0.19,0.38,0.37,0.57,0.56c0,0-0.03-0.03-0.03-0.03c0.19,0.19,0.38,0.38,0.56,0.57 c0,0-0.02-0.02-0.02-0.02c0.54,0.54,1.09,1.09,1.63,1.63c0,0-0.03-0.02-0.02-0.02c0.19,0.19,0.38,0.38,0.57,0.56 c0,0-0.03-0.03-0.03-0.03c0.19,0.19,0.38,0.38,0.57,0.57c0,0-0.02-0.02-0.02-0.02c0.36,0.37,0.73,0.73,1.09,1.1 c0,0-0.02-0.02-0.02-0.02c0.19,0.19,0.38,0.37,0.57,0.56c0,0-0.03-0.03-0.03-0.03c0.19,0.19,0.38,0.38,0.56,0.57 c0,0-0.02-0.02-0.02-0.02c0.36,0.37,0.73,0.73,1.09,1.1c0,0-0.03-0.02-0.03-0.02c0.19,0.19,0.38,0.38,0.57,0.56 c0,0-0.03-0.03-0.03-0.03c0.19,0.19,0.38,0.38,0.57,0.57c0,0-0.02-0.03-0.02-0.03c0.26,0.26,0.53,0.52,0.79,0.79 c0,0,0.05,0.05,0.05,0.05c0.26,0.27,0.53,0.53,0.79,0.8c0,0-0.03-0.02-0.03-0.02c0.19,0.19,0.38,0.38,0.57,0.56 c0,0-0.03-0.03-0.03-0.03c0.19,0.19,0.38,0.38,0.57,0.57c0,0-0.02-0.03-0.02-0.03c0.36,0.36,0.73,0.73,1.09,1.09 c0,0-0.03-0.02-0.03-0.02c0.19,0.19,0.38,0.38,0.57,0.57c0,0-0.03-0.03-0.03-0.03c0.19,0.19,0.38,0.38,0.56,0.57 c0,0-0.02-0.03-0.02-0.03c0.36,0.37,0.73,0.73,1.09,1.1c0,0-0.02-0.02-0.02-0.02c0.19,0.19,0.38,0.37,0.57,0.56 c0,0-0.03-0.03-0.03-0.03c0.19,0.19,0.38,0.38,0.56,0.57c0,0-0.02-0.02-0.02-0.02c0.26,0.26,0.53,0.53,0.79,0.79 c0,0,0.05,0.05,0.05,0.05c0.26,0.27,0.53,0.53,0.79,0.79c0,0-0.03-0.02-0.03-0.02c0.19,0.19,0.38,0.38,0.57,0.56 c0,0-0.03-0.03-0.03-0.03c0.19,0.19,0.38,0.38,0.57,0.57c0,0-0.02-0.03-0.02-0.03c0.36,0.37,0.73,0.73,1.09,1.1 c0,0-0.03-0.02-0.03-0.02c0.19,0.19,0.38,0.38,0.57,0.56c0,0-0.03-0.03-0.03-0.03c0.19,0.19,0.38,0.38,0.57,0.57 c0,0-0.02-0.03-0.02-0.03c0.36,0.37,0.73,0.73,1.09,1.1c0,0-0.02-0.02-0.02-0.02c0.19,0.19,0.38,0.37,0.57,0.56 c0,0-0.03-0.03-0.03-0.03c0.19,0.19,0.38,0.38,0.56,0.57c0,0-0.02-0.02-0.02-0.02c0.26,0.26,0.53,0.53,0.79,0.79 c0,0,0.04,0.05,0.04,0.05c0.27,0.27,0.53,0.53,0.8,0.8c0,0-0.03-0.02-0.03-0.02c0.19,0.19,0.38,0.38,0.57,0.56 c0,0-0.03-0.03-0.03-0.03c0.19,0.19,0.38,0.38,0.57,0.57c0,0-0.02-0.03-0.02-0.03c0.36,0.37,0.73,0.73,1.09,1.1 c0,0-0.03-0.02-0.02-0.02c0.19,0.19,0.38,0.37,0.57,0.56c0,0-0.03-0.03-0.03-0.03c0.19,0.19,0.38,0.38,0.56,0.57 c0,0-0.02-0.02-0.02-0.02c0.36,0.37,0.73,0.73,1.09,1.1c0,0-0.02-0.02-0.02-0.02c0.19,0.19,0.38,0.37,0.57,0.56 c0,0-0.03-0.03-0.03-0.03c0.19,0.19,0.38,0.38,0.57,0.57c0,0-0.02-0.02-0.02-0.02c0.54,0.54,1.09,1.09,1.63,1.63 c0,0-0.02-0.02-0.02-0.02c0.19,0.19,0.38,0.37,0.57,0.56c0,0-0.03-0.03-0.03-0.03c0.19,0.19,0.38,0.38,0.57,0.57 c0,0-0.02-0.03-0.02-0.03c0.36,0.37,0.73,0.73,1.09,1.1c0,0-0.02-0.02-0.02-0.02c0.19,0.19,0.38,0.37,0.57,0.56 c0,0-0.03-0.03-0.03-0.03c0.19,0.19,0.38,0.38,0.56,0.57c0,0-0.02-0.03-0.02-0.03c0.36,0.36,0.73,0.73,1.09,1.09 c0,0-0.02-0.02-0.02-0.02c0.19,0.19,0.38,0.38,0.57,0.56c0,0-0.03-0.03-0.03-0.03c0.19,0.19,0.38,0.38,0.57,0.57 c0,0-0.02-0.02-0.02-0.02c0.54,0.55,1.09,1.09,1.63,1.64c0,0-0.03-0.02-0.03-0.02c0.19,0.19,0.38,0.37,0.57,0.56 c0,0-0.03-0.03-0.03-0.03c0.19,0.19,0.38,0.38,0.57,0.57c0,0-0.02-0.03-0.02-0.03c0.36,0.37,0.73,0.73,1.09,1.1 c0,0-0.03-0.02-0.03-0.02c0.19,0.19,0.38,0.38,0.57,0.57c0,0-0.03-0.03-0.03-0.03c0.19,0.19,0.38,0.38,0.57,0.57 c0,0-0.02-0.03-0.02-0.03c0.37,0.36,0.73,0.73,1.1,1.09c0,0-0.03-0.02-0.03-0.02c0.19,0.19,0.38,0.38,0.57,0.57 c0,0-0.03-0.03-0.03-0.03c0.19,0.19,0.38,0.38,0.57,0.57c0,0-0.03-0.03-0.03-0.03c0.19,0.19,0.38,0.38,0.57,0.57 c0,0-0.02-0.02-0.02-0.02c0.36,0.37,0.73,0.73,1.09,1.1c0,0-0.02-0.02-0.02-0.02c0.19,0.19,0.38,0.38,0.57,0.56 c0,0-0.03-0.03-0.03-0.03c0.19,0.19,0.38,0.38,0.57,0.57c0,0-0.02-0.03-0.02-0.03c0.36,0.37,0.73,0.73,1.09,1.1 c0,0-0.03-0.02-0.03-0.02c0.19,0.19,0.38,0.37,0.57,0.56c0,0-0.03-0.03-0.03-0.03c0.19,0.19,0.38,0.38,0.56,0.57 c0,0-0.02-0.03-0.02-0.03c0.26,0.26,0.53,0.53,0.79,0.79c0,0,0.05,0.05,0.05,0.05c0.26,0.27,0.53,0.53,0.79,0.79 c0,0-0.03-0.02-0.03-0.02c0.19,0.19,0.38,0.38,0.57,0.56c0,0-0.02-0.02-0.02-0.02c0.26,0.26,0.53,0.52,0.79,0.79 c0,0,0.05,0.06,0.05,0.06c0.26,0.26,0.52,0.53,0.79,0.79c0,0-0.03-0.02-0.02-0.02c0.19,0.19,0.38,0.37,0.57,0.56 c0,0-0.03-0.03-0.03-0.03c0.19,0.19,0.38,0.38,0.56,0.57c0,0-0.02-0.03-0.02-0.03c0.36,0.37,0.73,0.73,1.09,1.1 c0,0-0.02-0.02-0.02-0.02c0.19,0.19,0.38,0.37,0.57,0.56c0,0-0.03-0.03-0.03-0.03c0.19,0.19,0.37,0.38,0.56,0.57 c0,0-0.02-0.02-0.02-0.02c0.26,0.26,0.53,0.52,0.79,0.79c0,0,0.05,0.05,0.05,0.05c0.26,0.27,0.53,0.53,0.79,0.8 c0,0-0.03-0.02-0.03-0.02c0.19,0.19,0.38,0.38,0.57,0.57c0,0-0.02-0.02-0.02-0.02c0.54,0.55,1.09,1.09,1.63,1.64 c0,0-0.03-0.02-0.03-0.02c0.19,0.19,0.38,0.37,0.57,0.56c0,0-0.03-0.03-0.03-0.03c0.19,0.19,0.38,0.38,0.56,0.57 c0,0-0.02-0.03-0.02-0.03c0.36,0.37,0.73,0.73,1.09,1.1c0,0-0.03-0.02-0.03-0.02c0.19,0.19,0.38,0.37,0.57,0.56 c0,0-0.03-0.03-0.03-0.03c0.19,0.19,0.37,0.38,0.56,0.57c0,0-0.02-0.02-0.02-0.02c0.37,0.36,0.73,0.73,1.1,1.09 c0,0-0.02-0.02-0.02-0.02c0.19,0.19,0.38,0.38,0.57,0.57c0,0-0.03-0.03-0.03-0.03c0.19,0.19,0.38,0.38,0.57,0.56 c0,0-0.02-0.02-0.02-0.02c0.26,0.26,0.53,0.52,0.79,0.78c0,0,0.06,0.06,0.06,0.06c0.26,0.27,0.52,0.53,0.79,0.8 c0,0-0.03-0.02-0.03-0.02c0.19,0.19,0.38,0.38,0.57,0.56c0,0-0.02-0.03-0.02-0.03c0.54,0.55,1.09,1.09,1.63,1.64 c0,0-0.03-0.02-0.03-0.02c0.19,0.19,0.38,0.38,0.57,0.56c0,0-0.03-0.03-0.03-0.03c0.19,0.19,0.38,0.38,0.56,0.57 c0,0-0.02-0.03-0.02-0.03c0.26,0.26,0.53,0.52,0.79,0.78c0,0,0.05,0.06,0.05,0.06c0.26,0.26,0.53,0.53,0.79,0.79 c0,0-0.02-0.02-0.02-0.02c0.19,0.19,0.38,0.38,0.57,0.56c0,0-0.03-0.03-0.03-0.03c0.19,0.19,0.38,0.38,0.57,0.57 c0,0-0.02-0.03-0.02-0.03c0.36,0.37,0.73,0.73,1.09,1.1c0,0-0.03-0.02-0.03-0.02c0.19,0.19,0.38,0.37,0.57,0.56 c0,0-0.03-0.03-0.03-0.03c0.19,0.19,0.38,0.38,0.56,0.57c0,0-0.02-0.03-0.02-0.03c0.36,0.36,0.73,0.73,1.09,1.09 c0,0-0.03-0.02-0.03-0.02c0.19,0.19,0.38,0.38,0.57,0.56c0,0-0.03-0.03-0.03-0.03c0.19,0.19,0.38,0.38,0.56,0.57 c0,0-0.02-0.02-0.02-0.02c0.26,0.26,0.53,0.53,0.79,0.79c0,0,0.04,0.05,0.04,0.05c0.27,0.27,0.53,0.53,0.8,0.8 c0,0-0.03-0.02-0.03-0.02c0.19,0.19,0.38,0.38,0.57,0.56c0,0-0.02-0.03-0.02-0.03c0.26,0.26,0.53,0.52,0.79,0.78 c0,0,0.06,0.06,0.06,0.06c0.26,0.27,0.52,0.53,0.78,0.8c0,0-0.03-0.02-0.03-0.02c0.19,0.19,0.38,0.37,0.57,0.56 c0,0-0.03-0.03-0.03-0.03c0.19,0.19,0.37,0.38,0.56,0.57c0,0-0.02-0.03-0.02-0.03c0.37,0.37,0.73,0.73,1.1,1.1 c0,0-0.03-0.02-0.03-0.02c0.19,0.19,0.38,0.38,0.57,0.57c0,0-0.03-0.03-0.03-0.03c0.19,0.19,0.38,0.38,0.57,0.57 c0,0-0.02-0.03-0.02-0.03c0.54,0.54,1.09,1.09,1.63,1.63c0,0-0.03-0.02-0.03-0.02c0.19,0.19,0.38,0.38,0.57,0.56 c0,0-0.03-0.03-0.03-0.03c0.19,0.19,0.38,0.38,0.57,0.57c0,0-0.02-0.03-0.02-0.03c0.36,0.37,0.73,0.73,1.09,1.1 c0,0-0.03-0.02-0.03-0.02c0.19,0.19,0.38,0.37,0.57,0.56c0,0-0.03-0.03-0.03-0.03c0.19,0.19,0.37,0.38,0.56,0.57 c0,0-0.02-0.02-0.02-0.02c0.55,0.54,1.09,1.09,1.64,1.63c0,0-0.03-0.02-0.03-0.02c0.19,0.19,0.38,0.38,0.57,0.57 c0,0-0.02-0.03-0.02-0.03c0.26,0.26,0.53,0.52,0.79,0.78c0,0,0.05,0.05,0.05,0.05c0.26,0.27,0.53,0.53,0.79,0.8 c0,0-0.03-0.02-0.03-0.02c0.19,0.19,0.38,0.38,0.57,0.56c0,0-0.02-0.03-0.02-0.03c0.54,0.55,1.09,1.09,1.63,1.64 c0,0-0.03-0.02-0.02-0.02c0.19,0.19,0.38,0.37,0.57,0.56c0,0-0.03-0.03-0.03-0.03c0.19,0.19,0.38,0.38,0.56,0.57 c0,0-0.02-0.03-0.02-0.03c0.54,0.54,1.09,1.09,1.63,1.63c0,0-0.02-0.02-0.02-0.02c0.19,0.19,0.38,0.38,0.57,0.57 c0,0-0.02-0.03-0.02-0.03c0.26,0.26,0.53,0.53,0.79,0.79c0,0,0.05,0.05,0.05,0.05c0.26,0.27,0.53,0.53,0.79,0.8 c0,0-0.03-0.02-0.03-0.02c0.19,0.19,0.38,0.38,0.57,0.56c0,0-0.02-0.02-0.02-0.02c0.54,0.55,1.09,1.09,1.63,1.64 c0,0-0.03-0.02-0.03-0.02c0.19,0.19,0.38,0.37,0.57,0.56c0,0-0.03-0.03-0.03-0.03c0.19,0.19,0.38,0.38,0.56,0.57 c0,0-0.02-0.03-0.02-0.03c0.37,0.36,0.73,0.73,1.1,1.09c0,0-0.03-0.02-0.03-0.02c0.19,0.19,0.38,0.38,0.57,0.57 c0,0-0.03-0.03-0.03-0.03c0.19,0.19,0.38,0.38,0.57,0.57c0,0-0.02-0.03-0.02-0.03c0.26,0.26,0.53,0.52,0.79,0.78 c0,0,0.05,0.06,0.05,0.06c0.26,0.27,0.52,0.53,0.79,0.79c0,0-0.02-0.02-0.02-0.02c0.19,0.19,0.38,0.37,0.57,0.56 c0,0-0.03-0.03-0.03-0.03c0.19,0.19,0.38,0.38,0.56,0.57c0,0-0.02-0.03-0.02-0.03c0.54,0.54,1.09,1.09,1.63,1.63 c0,0-0.03-0.02-0.03-0.02c0.19,0.19,0.38,0.38,0.56,0.57c0,0-0.02-0.03-0.02-0.03c0.55,0.54,1.09,1.09,1.64,1.63 c0,0-0.03-0.02-0.03-0.02c0.19,0.19,0.38,0.38,0.57,0.57c0,0-0.02-0.03-0.02-0.03c0.26,0.26,0.53,0.52,0.79,0.77 c0,0,0.06,0.07,0.06,0.07c0.26,0.27,0.52,0.53,0.78,0.8c0,0-0.03-0.02-0.03-0.02c0.19,0.19,0.38,0.38,0.57,0.56 c0,0-0.02-0.03-0.02-0.03c0.26,0.26,0.53,0.52,0.79,0.78c0,0,0.06,0.06,0.06,0.06c0.44,0.44,0.88,0.89,1.32,1.33 c0,0-0.03-0.02-0.03-0.02c0.19,0.19,0.38,0.38,0.56,0.57c0,0-0.02-0.03-0.02-0.03c0.17,0.37,0.34,0.74,0.52,1.12 c0.37,0.17,0.75,0.34,1.12,0.51c0,0-0.03-0.02-0.03-0.02c0.19,0.19,0.38,0.38,0.57,0.57c0,0-0.02-0.03-0.02-0.03 c0.27,0.27,0.53,0.53,0.8,0.79c0,0,0.04,0.04,0.04,0.04c0.27,0.27,0.53,0.53,0.8,0.8c0,0-0.03-0.02-0.03-0.02 c0.19,0.19,0.38,0.38,0.57,0.56c0,0-0.03-0.03-0.03-0.03c0.19,0.19,0.38,0.38,0.57,0.57c0,0-0.02-0.03-0.02-0.03 c0.36,0.37,0.73,0.73,1.09,1.1c0,0-0.03-0.02-0.03-0.02c0.19,0.19,0.38,0.38,0.57,0.56c0,0-0.03-0.03-0.03-0.03 c0.19,0.19,0.38,0.38,0.56,0.57c0,0-0.02-0.03-0.02-0.03c0.27,0.26,0.53,0.52,0.8,0.79c0,0,0.04,0.04,0.04,0.05 c0.26,0.27,0.53,0.54,0.79,0.8c0,0-0.03-0.02-0.03-0.02c0.19,0.19,0.38,0.38,0.57,0.57c0,0-0.02-0.03-0.02-0.03 c0.26,0.26,0.53,0.52,0.79,0.78c0,0,0.07,0.07,0.07,0.07c0.44,0.44,0.88,0.89,1.31,1.33c0,0-0.02-0.02-0.02-0.02 c0.26,0.26,0.53,0.52,0.79,0.78c0,0,0.09,0.12,0.09,0.12c0.13,0.12,0.25,0.25,0.38,0.37c0,0,0.13,0.1,0.12,0.1 c0.26,0.26,0.53,0.53,0.79,0.79c0,0-0.03-0.02-0.03-0.02c0.19,0.19,0.38,0.38,0.56,0.57c0,0-0.02-0.03-0.02-0.03 c0.55,0.54,1.09,1.09,1.64,1.63c0,0-0.03-0.02-0.03-0.02c0.19,0.19,0.38,0.38,0.57,0.57c0,0-0.02-0.03-0.02-0.03 C406.55,746.58,406.95,747.1,407.34,747.62z" fill="#FF5A93"></path><path class="st_0" d="M294.21,613.01c-18.89-18.89-37.77-37.78-56.66-56.68c-0.76-0.76-1.47-1.56-2.2-2.34 c-0.18-1.41-0.51-2.82-0.51-4.22c-0.02-100.22-0.02-200.43-0.02-300.65c0-0.99,0.05-1.97,0.07-2.96c74.67,0,149.35,0,224.02,0 c0.01,1.08,0.01,2.15,0.01,3.23c0,175.8,0.01,351.61,0.01,527.41c-0.4,0.03-0.8,0.05-1.2,0.08c0,0,0.06,0.03,0.05,0.03 c-0.2-0.2-0.4-0.39-0.6-0.59c0,0,0.06,0.06,0.06,0.06c-0.2-0.2-0.4-0.4-0.6-0.59c0,0,0.04,0.06,0.04,0.06 c-0.37-0.37-0.73-0.74-1.1-1.12c0,0,0.05,0.03,0.05,0.03c-0.18-0.2-0.37-0.41-0.55-0.61c0,0,0.03,0.03,0.03,0.03 c-0.2-0.18-0.41-0.37-0.61-0.55c0,0,0.03,0.05,0.03,0.05c-0.55-0.54-1.1-1.09-1.66-1.63c0,0,0.06,0.03,0.06,0.03 c-0.2-0.2-0.4-0.4-0.6-0.6c0,0,0.04,0.06,0.04,0.06c-0.55-0.55-1.1-1.1-1.65-1.65c0,0,0.06,0.04,0.06,0.04 c-0.2-0.2-0.4-0.4-0.6-0.6c0,0,0.06,0.06,0.06,0.06c-0.2-0.2-0.4-0.4-0.6-0.59c0,0,0.04,0.06,0.04,0.06 c-0.37-0.37-0.74-0.74-1.11-1.11c0,0,0.06,0.03,0.06,0.03c-0.2-0.2-0.4-0.4-0.6-0.6c0,0,0.06,0.06,0.06,0.06 c-0.19-0.21-0.38-0.41-0.58-0.61c0,0,0.03,0.06,0.03,0.05c-0.55-0.54-1.11-1.08-1.66-1.62c0,0,0.05,0.03,0.05,0.03 c-0.18-0.21-0.36-0.42-0.54-0.63c0,0,0,0.04,0,0.04c-0.74-0.71-1.47-1.43-2.21-2.14c0,0,0.03,0.03,0.03,0.03 c-0.55-0.55-1.09-1.1-1.64-1.65c0,0,0.06,0.03,0.06,0.03c-0.2-0.19-0.41-0.39-0.61-0.58c0,0,0.06,0.06,0.06,0.06 c-0.2-0.2-0.4-0.4-0.59-0.6c0,0,0.04,0.06,0.04,0.06c-0.55-0.55-1.1-1.09-1.65-1.64c0,0,0.05,0.04,0.05,0.04 c-0.18-0.21-0.36-0.42-0.54-0.63c0,0,0.01,0.04,0.01,0.04c-0.56-0.54-1.11-1.07-1.67-1.61c0,0,0.05,0.03,0.05,0.03 c-0.18-0.21-0.36-0.42-0.54-0.62c0,0,0,0.04,0,0.04c-0.73-0.72-1.46-1.43-2.2-2.15c0,0,0.05,0.03,0.05,0.03 c-0.18-0.21-0.37-0.41-0.55-0.62c0,0,0,0.04,0,0.04c-0.56-0.53-1.11-1.06-1.67-1.6c0,0,0.05,0.03,0.05,0.03 c-0.18-0.21-0.36-0.42-0.54-0.63c0,0,0.03,0.03,0.03,0.03c-0.2-0.19-0.39-0.38-0.59-0.56c0,0,0.03,0.04,0.03,0.04 c-0.38-0.36-0.75-0.72-1.13-1.08c0,0,0.06,0.03,0.05,0.03c-0.19-0.2-0.39-0.4-0.58-0.61c0,0,0.05,0.05,0.05,0.05 c-0.2-0.19-0.41-0.39-0.61-0.58c0,0,0.04,0.05,0.04,0.05c-0.55-0.55-1.1-1.09-1.66-1.64c0,0,0.06,0.03,0.06,0.03 c-0.2-0.2-0.39-0.4-0.59-0.61c0,0,0.03,0.06,0.03,0.06c-0.55-0.55-1.1-1.1-1.65-1.64c0,0,0.06,0.03,0.06,0.03 c-0.2-0.2-0.4-0.4-0.6-0.59c0,0,0.03,0.06,0.03,0.06c-0.55-0.55-1.1-1.1-1.64-1.65c0,0,0.05,0.04,0.05,0.04 c-0.18-0.21-0.36-0.42-0.54-0.62c0,0,0.03,0.03,0.03,0.03c-0.19-0.19-0.38-0.38-0.56-0.58c0,0,0.01,0.03,0.01,0.03 c-0.55-0.54-1.09-1.08-1.64-1.61c0,0,0.04,0,0.04,0c-0.21-0.18-0.41-0.37-0.62-0.55c0,0,0.04,0.05,0.04,0.05 c-0.54-0.55-1.08-1.1-1.62-1.66c0,0,0.04,0.01,0.04,0.01c-0.21-0.19-0.41-0.37-0.62-0.56c0,0,0.04,0.05,0.04,0.05 c-0.72-0.73-1.44-1.47-2.15-2.2c0,0,0.01,0.01,0.01,0.01c-0.73-0.71-1.47-1.43-2.2-2.14c0,0,0.05,0.03,0.05,0.03 c-0.2-0.2-0.4-0.4-0.6-0.6c0,0,0.04,0.06,0.04,0.06c-0.54-0.55-1.08-1.11-1.62-1.66c0,0,0.05,0.01,0.04,0.01 c-0.21-0.19-0.41-0.37-0.61-0.56c0,0,0.04,0.05,0.04,0.05c-0.55-0.55-1.1-1.1-1.65-1.65c0,0,0.06,0.03,0.06,0.03 c-0.2-0.2-0.41-0.39-0.61-0.59c0,0,0.06,0.06,0.06,0.06c-0.19-0.21-0.37-0.42-0.56-0.62c0,0,0.02,0.05,0.02,0.05 c-0.36-0.37-0.72-0.74-1.09-1.11c0,0,0.04,0.01,0.04,0.01c-0.19-0.19-0.39-0.38-0.58-0.57c0,0,0.04,0.04,0.04,0.04 c-0.19-0.19-0.38-0.38-0.58-0.58c0,0,0.01,0.04,0.01,0.04c-0.54-0.54-1.09-1.09-1.63-1.63c0,0,0.04,0.01,0.04,0.01 c-0.19-0.19-0.39-0.38-0.58-0.57c0,0,0.01,0.04,0.01,0.04c-0.72-0.72-1.45-1.44-2.17-2.17c0,0,0.04,0.01,0.04,0.01 c-0.19-0.19-0.38-0.39-0.57-0.58c0,0,0.02,0.04,0.02,0.04c-0.55-0.54-1.09-1.09-1.64-1.63c0,0,0.04,0.01,0.04,0.01 c-0.19-0.19-0.38-0.39-0.57-0.58c0,0,0.01,0.04,0.01,0.04c-0.55-0.54-1.11-1.08-1.66-1.62c0,0,0.05,0.04,0.05,0.04 c-0.19-0.21-0.37-0.41-0.56-0.61c0,0,0.01,0.04,0.01,0.04c-0.54-0.54-1.09-1.09-1.63-1.63c0,0,0.04,0.01,0.04,0.01 c-0.19-0.19-0.39-0.38-0.58-0.58c0,0,0.04,0.04,0.04,0.04c-0.19-0.19-0.38-0.39-0.58-0.58c0,0,0.02,0.04,0.02,0.04 c-0.55-0.54-1.09-1.08-1.64-1.63c0,0,0.04,0.01,0.04,0.01c-0.19-0.19-0.38-0.39-0.58-0.58c0,0,0.01,0.04,0.01,0.04 c-0.54-0.55-1.08-1.09-1.63-1.64c0,0,0.04,0.01,0.04,0.01c-0.19-0.19-0.39-0.38-0.58-0.57c0,0,0.01,0.04,0.01,0.04 c-0.55-0.54-1.09-1.09-1.64-1.63c0,0,0.05,0.02,0.05,0.02c-0.21-0.19-0.41-0.38-0.62-0.56c0,0,0.06,0.06,0.06,0.06 c-0.19-0.21-0.37-0.41-0.56-0.62c0,0,0.01,0.05,0.01,0.05c-0.55-0.54-1.11-1.08-1.66-1.62c0,0,0.05,0.04,0.05,0.04 c-0.19-0.21-0.37-0.41-0.56-0.61c0,0,0.01,0.04,0.01,0.04c-0.54-0.54-1.09-1.09-1.63-1.63c0,0,0.04,0.01,0.04,0.01 c-0.19-0.19-0.39-0.38-0.58-0.57c0,0,0.04,0.04,0.04,0.04c-0.19-0.2-0.38-0.39-0.56-0.59c0,0,0.01,0.04,0.01,0.04 c-0.38-0.36-0.75-0.72-1.13-1.08c0,0,0.05,0.04,0.05,0.04c-0.19-0.2-0.37-0.41-0.56-0.61c0,0,0.03,0.04,0.03,0.04 c-0.19-0.19-0.38-0.38-0.58-0.57c0,0,0.01,0.04,0.01,0.04c-0.54-0.54-1.09-1.09-1.63-1.63c0,0,0.04,0.01,0.04,0.01 c-0.19-0.19-0.39-0.38-0.58-0.58c0,0,0.01,0.04,0.01,0.04c-0.54-0.55-1.08-1.09-1.63-1.64c0,0,0.04,0.02,0.04,0.02 c-0.19-0.19-0.39-0.38-0.58-0.57c0,0,0.04,0.04,0.04,0.04c-0.19-0.19-0.38-0.39-0.57-0.58c0,0,0.02,0.04,0.02,0.04 c-0.37-0.37-0.73-0.73-1.1-1.1c0,0,0.04,0.02,0.04,0.02c-0.19-0.19-0.39-0.38-0.58-0.58c0,0,0.04,0.04,0.04,0.04 c-0.19-0.19-0.38-0.39-0.58-0.58c0,0,0.02,0.04,0.02,0.04c-0.55-0.54-1.09-1.09-1.64-1.63c0,0,0.04,0.02,0.04,0.02 c-0.19-0.19-0.39-0.38-0.58-0.57c0,0,0.01,0.04,0.01,0.04c-0.54-0.55-1.08-1.09-1.62-1.64c0,0,0.04,0.02,0.04,0.02 c-0.19-0.19-0.39-0.38-0.58-0.58c0,0,0.04,0.04,0.04,0.04c-0.19-0.19-0.39-0.38-0.58-0.58c0,0,0.02,0.04,0.02,0.04 c-0.37-0.37-0.73-0.73-1.1-1.1c0,0,0.04,0.01,0.04,0.01c-0.19-0.19-0.38-0.39-0.57-0.58c0,0,0.04,0.04,0.04,0.04 c-0.19-0.19-0.38-0.39-0.58-0.58c0,0,0.01,0.04,0.01,0.04c-0.54-0.54-1.09-1.09-1.63-1.63c0,0,0.04,0.02,0.04,0.02 c-0.19-0.19-0.39-0.38-0.58-0.57c0,0,0.01,0.04,0.01,0.04c-0.54-0.55-1.09-1.09-1.63-1.64c0,0,0.04,0.02,0.04,0.02 c-0.19-0.19-0.39-0.38-0.58-0.57c0,0,0.04,0.04,0.04,0.04c-0.19-0.19-0.38-0.39-0.57-0.58c0,0,0.02,0.04,0.02,0.04 c-0.55-0.54-1.09-1.09-1.64-1.63c0,0,0.04,0.01,0.04,0.01c-0.19-0.19-0.38-0.38-0.58-0.58c0,0,0.01,0.04,0.01,0.04 c-0.54-0.55-1.09-1.09-1.63-1.64c0,0,0.04,0.02,0.04,0.02c-0.19-0.19-0.39-0.38-0.58-0.57c0,0,0.01,0.04,0.01,0.04 c-0.54-0.55-1.09-1.09-1.63-1.64c0,0,0.04,0.02,0.04,0.02c-0.19-0.19-0.39-0.38-0.58-0.57c0,0,0.04,0.04,0.04,0.04 c-0.19-0.19-0.38-0.39-0.58-0.58c0,0,0.02,0.04,0.02,0.04c-0.37-0.37-0.73-0.73-1.1-1.1c0,0,0.04,0.02,0.04,0.02 c-0.19-0.19-0.39-0.38-0.58-0.57c0,0,0.04,0.04,0.04,0.04c-0.19-0.19-0.39-0.38-0.58-0.58c0,0,0.02,0.04,0.02,0.04 c-0.54-0.55-1.09-1.09-1.63-1.64c0,0,0.04,0.02,0.04,0.02c-0.19-0.19-0.39-0.38-0.58-0.58c0,0,0.01,0.04,0.01,0.04 c-0.54-0.55-1.09-1.09-1.63-1.64c0,0,0.04,0.02,0.04,0.02c-0.19-0.19-0.39-0.38-0.58-0.57c0,0,0.04,0.04,0.04,0.04 c-0.19-0.19-0.38-0.39-0.58-0.58c0,0,0.02,0.04,0.02,0.04c-0.37-0.37-0.73-0.73-1.1-1.1c0,0,0.04,0.02,0.04,0.02 c-0.19-0.19-0.38-0.38-0.58-0.58c0,0,0.04,0.04,0.04,0.04c-0.19-0.19-0.39-0.38-0.58-0.57c0,0,0.01,0.04,0.01,0.04 c-0.54-0.55-1.09-1.09-1.63-1.64c0,0,0.04,0.02,0.04,0.02c-0.19-0.19-0.39-0.38-0.58-0.57c0,0,0.01,0.04,0.01,0.04 c-0.54-0.55-1.08-1.09-1.63-1.64c0,0,0.04,0.01,0.04,0.01c-0.19-0.19-0.39-0.38-0.58-0.57c0,0,0.04,0.04,0.04,0.04 c-0.19-0.19-0.39-0.38-0.58-0.58c0,0,0.02,0.04,0.02,0.04c-0.54-0.55-1.09-1.09-1.63-1.64c0,0,0.04,0.01,0.04,0.01 c-0.19-0.19-0.38-0.38-0.58-0.58c0,0,0.01,0.04,0.01,0.04c-0.54-0.55-1.09-1.09-1.63-1.64c0,0,0.04,0.02,0.04,0.02 c-0.19-0.19-0.39-0.38-0.58-0.57c0,0,0.01,0.04,0.01,0.04c-0.72-0.73-1.44-1.45-2.16-2.18c0,0,0.04,0.01,0.04,0.01 c-0.19-0.19-0.38-0.38-0.58-0.58c0,0,0.02,0.04,0.02,0.04c-0.37-0.37-0.73-0.74-1.1-1.1c0,0,0.04,0.02,0.04,0.02 c-0.19-0.19-0.39-0.38-0.58-0.57c0,0,0.04,0.04,0.04,0.04c-0.19-0.19-0.39-0.38-0.58-0.58c0,0,0.02,0.04,0.02,0.04 c-0.54-0.55-1.09-1.09-1.63-1.64c0,0,0.04,0.02,0.04,0.02c-0.19-0.19-0.38-0.38-0.58-0.58c0,0,0.04,0.04,0.04,0.04 c-0.19-0.19-0.39-0.38-0.58-0.57c0,0,0.02,0.04,0.02,0.04c-0.37-0.37-0.73-0.73-1.1-1.1c0,0,0.04,0.02,0.04,0.02 c-0.19-0.19-0.39-0.38-0.58-0.58c0,0,0.04,0.04,0.04,0.04c-0.19-0.19-0.38-0.39-0.58-0.58c0,0,0.04,0.04,0.04,0.04 c-0.19-0.19-0.38-0.38-0.58-0.58c0,0,0.04,0.04,0.04,0.04c-0.19-0.19-0.38-0.39-0.57-0.58c0,0,0.04,0.04,0.04,0.04 c-0.19-0.19-0.38-0.38-0.57-0.58c0,0,0.04,0.04,0.03,0.04c-0.19-0.19-0.39-0.38-0.58-0.57c0,0,0.01,0.04,0.01,0.04 c-0.54-0.55-1.09-1.09-1.63-1.64c0,0,0.04,0.02,0.04,0.02c-0.19-0.19-0.39-0.38-0.58-0.57c0,0,0.01,0.04,0.01,0.04 c-0.54-0.55-1.09-1.09-1.63-1.64c0,0,0.04,0.02,0.04,0.02c-0.19-0.19-0.38-0.39-0.57-0.58c0,0,0.04,0.04,0.04,0.04 c-0.19-0.19-0.38-0.38-0.58-0.58c0,0,0.02,0.04,0.02,0.04c-0.37-0.37-0.73-0.73-1.1-1.1c0,0,0.04,0.02,0.04,0.02 c-0.19-0.19-0.38-0.39-0.57-0.58c0,0,0.04,0.04,0.04,0.04c-0.19-0.19-0.39-0.38-0.58-0.57c0,0,0.01,0.04,0.01,0.04 c-0.55-0.54-1.09-1.09-1.64-1.63c0,0,0.04,0.02,0.04,0.02c-0.19-0.19-0.39-0.38-0.58-0.57c0,0,0.01,0.04,0.01,0.04 c-0.72-0.73-1.45-1.45-2.17-2.18c0,0,0.04,0.01,0.04,0.01c-0.19-0.19-0.38-0.38-0.58-0.58c0,0,0.02,0.04,0.02,0.04 c-0.54-0.55-1.09-1.09-1.63-1.64c0,0,0.04,0.02,0.04,0.02c-0.19-0.19-0.38-0.38-0.58-0.57c0,0,0.01,0.04,0.01,0.04 c-0.54-0.55-1.09-1.09-1.63-1.64c0,0,0.04,0.01,0.04,0.01c-0.19-0.19-0.38-0.38-0.57-0.57c0,0,0.04,0.04,0.04,0.04 c-0.19-0.19-0.39-0.38-0.58-0.57c0,0,0.02,0.04,0.02,0.04c-0.37-0.37-0.73-0.73-1.1-1.1c0,0,0.04,0.02,0.04,0.02 c-0.19-0.19-0.38-0.39-0.57-0.58c0,0,0.04,0.04,0.04,0.04c-0.19-0.19-0.38-0.38-0.58-0.58c0,0,0.04,0.04,0.04,0.04 c-0.19-0.19-0.39-0.38-0.58-0.57c0,0,0.04,0.04,0.04,0.04c-0.19-0.19-0.38-0.38-0.57-0.58c0,0,0.04,0.04,0.04,0.04 c-0.19-0.19-0.39-0.38-0.58-0.57c0,0,0.04,0.04,0.04,0.04c-0.19-0.19-0.39-0.38-0.58-0.57c0,0,0.02,0.04,0.02,0.04 c-0.54-0.55-1.08-1.1-1.63-1.64c0,0,0.04,0.02,0.04,0.02c-0.19-0.19-0.38-0.38-0.58-0.57c0,0,0.04,0.04,0.04,0.04 c-0.19-0.19-0.38-0.38-0.58-0.58c0,0,0.02,0.04,0.02,0.04c-0.37-0.37-0.73-0.73-1.1-1.1c0,0,0.04,0.02,0.04,0.02 c-0.19-0.19-0.38-0.38-0.58-0.57c0,0,0.01,0.05,0.01,0.05c-0.37-0.38-0.74-0.75-1.11-1.13c-0.7-0.7-1.39-1.39-2.09-2.09 C294.83,613.8,294.52,613.41,294.21,613.01z" fill="#FF5A93"></path><path class="st_0" d="M668.54,387.95c-3.44,3.81-6.82,7.67-10.33,11.42c-12.45,13.31-24.94,26.6-37.44,39.87 c-6.92,7.35-13.93,14.6-20.83,21.97c-9.36,10-18.63,20.09-27.99,30.09c-10.78,11.52-21.66,22.94-32.44,34.46 c-13.55,14.49-27.03,29.05-40.58,43.54c-6.95,7.44-14,14.79-21,22.19c-0.43,0.49-0.87,0.98-1.3,1.48c0,0-0.08,0.09-0.08,0.09 c-0.14,0.15-0.29,0.31-0.43,0.46c0,0-0.07,0.08-0.07,0.08c-0.15,0.17-0.3,0.34-0.46,0.51c0,0-0.04,0.05-0.04,0.05 c-0.16,0.18-0.32,0.36-0.48,0.55l0,0c-0.36-0.87-1.02-1.75-1.02-2.62c-0.04-68.8-0.03-137.59-0.03-206.39 c35.55-0.01,71.1-0.02,106.66-0.03c23.2,0,46.4,0.01,69.6,0c0.87,0,1.73-0.24,2.6-0.36l0.08-0.15l-0.12-0.11 c5.74,0.07,11.49,0.13,17.23,0.2C669.57,386.14,669.06,387.05,668.54,387.95z" fill="#FF5A93"></path></g></svg>