<?xml version="1.0" encoding="utf-8"?>
<!-- Generator: Adobe Illustrator 25.0.1, SVG Export Plug-In . SVG Version: 6.00 Build 0)  -->
<svg version="1.1" id="Layer_1" xmlns="http://www.w3.org/2000/svg" xmlns:xlink="http://www.w3.org/1999/xlink" x="0px" y="0px"
	 viewBox="0 0 965 965" style="enable-background:new 0 0 965 965;" xml:space="preserve">
<style type="text/css">
	.st0{fill:#FC3D7E;}
	.st1{fill:#FC3F7F;}
	.st2{fill:#FC3E7E;}
</style>
<g>
	<path class="st0" d="M482.2,594.7c-151.2,0-302.3,0-453.5,0.1c-5.2,0-7-1.6-8.1-6.6C12.4,551,8.4,513.3,9,475.2
		c0.8-48.6,8.7-96,23.9-142.2c10-30.4,22.9-59.5,38.9-87.1c18.7-32.4,41-62.2,66.9-89.4c23.6-24.8,49.5-46.8,77.8-66
		c32.6-22.2,67.6-39.9,104.8-53.2c39.8-14.3,80.8-23,123-26.5c65.6-5.3,129.6,2.7,191.8,23.7c30.5,10.3,59.7,23.8,87.4,40.3
		c30.9,18.3,59.3,39.9,85.4,64.5c25.4,24,47.8,50.5,67.1,79.5c35.8,53.6,59.7,112.2,71.6,175.5c7.6,40.3,10.5,81,6.8,121.8
		c-2.2,24.6-7.1,49-10.6,73.5c-0.7,4.7-3.3,5.1-7.2,5.1C785.2,594.6,633.7,594.7,482.2,594.7z"/>
	<path class="st0" d="M922.4,659.6c-7,14.8-13.3,28.3-19.7,41.7c-2.7,5.7-6.1,11.1-8.9,16.7c-1.4,2.9-3.3,4.5-6.6,3.9
		c-0.8-0.1-1.7,0-2.5,0c-268.1,0-536.3,0-804.4,0.1c-5.1,0-8.1-1.1-10.3-6.1c-8.1-17.5-16.7-34.7-25.1-52c-0.6-1.1-0.8-2.4-1.4-4.4
		C336.3,659.6,628.5,659.6,922.4,659.6z"/>
	<path class="st1" d="M118.5,785.3c243,0,484.9,0,728,0c-1.9,2.3-3.1,4.1-4.6,5.7c-11.3,12-22.6,24.1-34.2,35.9
		c-1.6,1.7-4.5,2.1-6.9,2.9c-1.1,0.3-2.3,0.1-3.5,0.1c-209.8,0-419.6-0.1-629.4,0.2c-8.8,0-13.3-4.9-18.2-10
		c-9.7-10-18.9-20.3-28.3-30.5C120.5,788.5,119.8,787.2,118.5,785.3z"/>
	<path class="st2" d="M718.6,893.1c-146.3,85.3-332.3,82.2-472.2,0C403.9,893.1,560.9,893.1,718.6,893.1z"/>
</g>
</svg>
