<?xml version="1.0" encoding="utf-8"?>
<!-- Generator: Adobe Illustrator 25.0.1, SVG Export Plug-In . SVG Version: 6.00 Build 0)  -->
<svg version="1.1" id="Layer_1" xmlns="http://www.w3.org/2000/svg" xmlns:xlink="http://www.w3.org/1999/xlink" x="0px" y="0px"
	 viewBox="0 0 1080 1080" style="enable-background:new 0 0 1080 1080;" xml:space="preserve">
<style type="text/css">
	.st0{fill:#3E5CD8;}
	.st1{fill:#3C5BD7;}
	.st2{fill:#3D5CD7;}
	.st3{fill:#96A7E9;}
	.st4{fill:#758BE3;}
	.st5{fill:#B3BFEF;}
	.st6{fill:#7188E2;}
	.st7{fill:#98A9EA;}
	.st8{fill:#415FD8;}
</style>
<g>
	<path class="st0" d="M616.4,843.4c4.5,0,9-0.1,13.5,0.1c2.5,0.1,3.2-0.6,3.1-3.1c-0.1-42.6-0.1-85.2-0.1-127.8
		c0-26.2,0-52.5,0-78.7c0-8.5-0.1-17.1-0.1-25.6c0.1-5.9,0.3-11.8,0.3-17.7c0-1.6-0.9-1.8-2.4-1.1c-8.3,4.1-16.7,8.1-25,12.2
		c-3,1.5-5.8,3.2-8.8,4.8c-0.1,0.1-0.2,0.2-0.4,0.2c-4.4,2-8.8,4.1-13.2,6.1c-0.3,0.1-0.6,0.3-0.8,0.4c-3.5,1.4-7.1,2.8-10.6,4.3
		c-8.2,3.6-16.4,7.4-24.6,11.1c-2.8,1.3-5.5,2.8-8.3,4.1c-1,0.4-1.9,0.8-2.9,1.2c-2.2,0.8-4.4,1.7-6.7,2.4c-2.5,0.8-3.2,2.4-3.2,5
		c0.2,42.1,0.4,84.1,0.5,126.2c0,3,0.1,5.9,0,8.9c-0.2,2.5,0.6,3.5,3.3,3.4c7-0.2,14,0,21,0c0,18.8,0.1,37.7,0.1,56.5
		c0,6.4,0,12.7-0.1,19.1c-24.6,0-49.3,0-73.9,0.1c-2.4,0-2.2-1.4-2.2-2.9c0-22.8,0-45.7-0.1-68.5c0-1.4-0.3-2.8-0.5-4.3c0,0,0,0,0,0
		c7.3,0,14.5,0,21.8-0.1c0.8,0,1.6-0.7,2.3-1.1c0-24.5,0-49.1,0-73.6c0.1-0.3,0.2-0.7,0.2-1c0-17.3,0-34.6,0-51.9
		c0-2.1-0.8-2.4-2.7-1.7c-8,3.2-16,6.2-23.9,9.4c-1.2,0.5-2.2,1.4-3.2,2.1c-0.3,0-0.6,0.1-1,0.1c-3.7,1.2-7.4,2.3-11,3.6
		c-6.8,2.4-13.5,4.9-20.2,7.5c-1.3,0.5-2.4,1.4-3.5,2.2c-0.3,0-0.6,0.1-0.9,0.1c-0.7,0.3-1.4,0.6-2.1,0.8c-0.3,0.1-0.6,0.1-0.9,0.2
		c-0.4,0-0.9-0.1-1.3,0.1c-8.7,3-17.4,5.9-26,9c-1.6,0.6-3.2,1.4-4.7,2.2c-0.3,0-0.6,0.1-0.9,0.1c-4.3,0.7-4.4,0.8-4.4,5
		c0.1,50.3,0.3,100.5,0.4,150.8c0.1,45.5,0.1,91,0.1,136.5c0,3.7,0,3.7,3.8,3.7c6.8,0,13.7,0,20.5,0c0,24.9,0.1,49.7,0.1,74.6
		c0,0.6-0.1,1.2-0.3,2c-25.2,0-50.3,0-75.5,0c0-25.5,0-51,0-76.6c6.6,0,13,0,19.5,0c4.2,0,4.2,0,4.2-4.1
		c-0.1-74.4-0.3-148.8-0.4-223.3c0-18.2,0-36.5,0-54.7c0-0.6,0.2-1.4-0.1-1.9c-0.4-0.6-1.2-1.6-1.6-1.4c-3.8,1.2-7.6,2.5-11.3,3.8
		c-0.3,0-0.6,0.1-0.8,0.1c-0.8,0.3-1.6,0.7-2.5,1c-0.3,0.1-0.7,0.2-1,0.2c-0.9,0.3-1.8,0.6-2.7,0.9c-0.4,0.1-0.7,0.1-1.1,0.2
		c-0.2-0.1-0.3-0.2-0.5-0.2c-4.5,1.1-9.1,2.2-13.6,3.4c-1.5,0.4-2.8,1.4-4.3,2.2c-0.3,0-0.7,0.1-1,0.1c-0.9,0.3-1.8,0.6-2.8,0.9
		c-0.3,0.1-0.7,0.1-1,0.2c-1.2,0.2-2.5,0.4-3.7,0.7c-6.7,1.5-13.3,3.1-20,4.7c-6.4,1.5-12.8,3-19.2,4.6c-2.3,0.6-4.5,1.5-6.8,2.3
		c-0.7,0.1-1.4,0.1-2.1,0.2c-0.9,0.3-1.8,0.6-2.8,0.9c-0.7,0.1-1.4,0.1-2.1,0.2c-3.3-0.7-5.9,0.8-5.9,3.5c0,33.4,0,66.7,0,100.1
		c0,2.3,0.8,3,3,2.9c6.2-0.1,12.4,0,18.6,0c0.9,0,1.9,0.1,2.9,0.2c-0.1,1.1-0.2,1.9-0.2,2.7c0,17.2,0,34.3,0,51.5
		c0,0.7,0.4,1.5,0.6,2.2c0,6.3,0,12.6-0.1,18.9c-23.2,0-46.4,0-69.7,0c-2.4,0-4.8-0.1-7.3-0.1c0-0.3,0-0.6,0-0.9
		c0.2-0.7,0.7-1.4,0.7-2.1c0-10.1,0-20.3,0-30.4c0-0.7-0.4-1.4-0.7-2.1c0-13-0.1-25.9-0.1-38.9c0-0.3,0.2-0.7,0.3-1
		c6.8,0,13.7,0,20.5,0.1c4.2,0,4.4-0.1,4.3-4.4c-0.1-10.7-0.4-21.4-0.4-32.1c-0.1-20.2,0-40.5,0-60.7c0-3.4-0.1-3.6-3.5-3.2
		c-7.3,0.9-14.5,2-21.8,2.7c-7.9,0.8-15.8,1.5-23.8,2.1c-4.5,0.3-9,0.4-13.6,0.6c-3.7,0.2-7.5,0.5-11.2,0.4
		c-4.2-0.1-8.4-0.7-12.6-0.9c-9.9-0.5-19.6-1.9-29.2-4.7c-8.5-2.4-16.4-5.4-23.5-10.8c-8.1-6.2-13.5-13.8-14.3-24.2
		c0-0.5-0.6-1-0.8-1.5c0-1.2,0-2.4,0-3.7c1.4-1.8,1.4-3.7,0-5.5c0-0.3,0-0.6,0-1c0.2-1,0.5-2,0.7-3c0-0.3,0-0.6,0.1-0.9
		c0.9-2.4,1.8-4.8,2.8-7.1c1.8-4.3,3.6-8.6,5.4-12.8c-0.1,0.9-0.3,1.9-0.4,2.8c-0.1,0.5-0.1,1-0.2,1.5c-0.3,0.9-0.6,1.9-0.9,2.8
		c-0.1,0.5-0.2,1-0.3,1.5c-0.3,0.8-0.5,1.5-0.8,2.3c0,0.3-0.1,0.6-0.1,0.9c-1.9,5.4-1.6,10.8,0,16.2c0.1,0.5,0.1,1,0.2,1.5
		c0.7,1.9,1.4,3.8,2.1,5.7c2.3,3.3,4.6,6.6,6.9,9.8c2.9,3.5,6.3,6.5,10.5,8.4c2.5,1.1,4.9,2.6,7.5,3.5c4.4,1.5,8.8,3,13.3,4
		c5.2,1.1,10.6,1.8,15.9,2.3c7.7,0.7,15.5,1.2,23.3,1.5c4.8,0.2,9.6-0.2,14.4-0.5c3.4-0.2,6.8-0.3,10.2-0.6c8.5-0.8,17-1.7,25.6-2.6
		c0.9-0.1,1.8-0.8,2.7-1.2c0.5,0,1.1-0.1,1.6-0.1c2.1,0.5,4.2,1,6-0.9c0.5-0.1,1.1-0.1,1.6-0.2c1.8-0.3,3.6-0.6,5.4-1
		c0.5,0,1.1-0.1,1.6-0.1c1.6-0.3,3.3-0.6,4.9-1c0.5,0,1.1-0.1,1.6-0.1c0.9,0,1.7,0.2,2.6,0c4.9-0.9,9.9-1.9,14.8-3
		c4.1-0.8,8.1-1.7,12.2-2.6c6.6-1.5,13.2-2.9,19.8-4.4c2.1-0.5,4.2-1.5,6.3-2.2c0.3-0.1,0.7-0.1,1-0.2c0.9-0.3,1.8-0.6,2.7-0.9
		c0.3-0.1,0.7-0.1,1-0.2c0.6,0.1,1.2,0.4,1.8,0.2c5.7-1.4,11.5-2.8,17.2-4.4c7.3-2.1,14.6-4.4,21.8-6.7c1-0.3,2-0.9,2.9-1.3
		c0.4,0,0.7-0.1,1.1-0.1c0.7-0.3,1.5-0.6,2.2-1c0.4,0,0.7-0.1,1.1-0.2c0.2,0.1,0.5,0.3,0.7,0.3c6.4-1.9,12.8-3.7,19.1-5.7
		c4.4-1.4,8.7-2.9,13-4.5c2.8-1,5.5-2.2,8.2-3.4c0.3-0.1,0.7-0.1,1-0.2c1.5-0.6,2.9-1.3,4.4-1.9c0.5-0.1,1.1-0.1,1.6-0.2
		c0.9-0.1,1.9-0.1,2.8-0.4c7.6-2.6,15.1-5.3,22.6-8.1c1.8-0.7,3.5-1.8,5.3-2.7c0.3,0,0.6-0.1,0.8-0.1c0.6-0.3,1.2-0.6,1.9-1
		c0.3,0,0.6-0.1,0.8-0.1c0.6-0.3,1.3-0.7,1.9-1c0.3-0.1,0.7-0.2,1-0.2c1.8-0.4,3.6-0.7,5.2-1.3c6.4-2.3,12.9-4.7,19.3-7.3
		c3.2-1.3,6.3-3.1,9.5-4.7c0.3,0,0.6-0.1,0.8-0.1c1.8-0.5,3.6-0.9,5.3-1.6c12.8-5.3,25.7-10.7,38.5-16.1c1.3-0.5,2.3-1.5,3.5-2.3
		c0.3-0.1,0.7-0.2,1-0.2c0.3-0.2,0.7-0.5,1-0.7c0.3-0.1,0.5-0.2,0.8-0.2c3.9-1.5,7.9-2.9,11.8-4.5c2.4-1,4.6-2.4,6.9-3.7
		c0.1-0.1,0.2-0.2,0.4-0.2c2.8-1.3,5.5-2.5,8.3-3.8c0.3-0.1,0.7-0.2,1-0.3c3.7-1.5,7.5-2.9,11.1-4.6c7.8-3.6,15.5-7.2,23.1-10.9
		c3.8-1.8,7.4-4,11.1-6c0.1-0.1,0.2-0.2,0.4-0.3c0.6-0.3,1.2-0.6,1.8-0.9c0,0,0,0,0,0c3.2-1.6,6.4-3.1,9.7-4.7
		c0.3-0.1,0.5-0.3,0.8-0.4c1-0.3,2-0.5,2.9-1c3.8-2,7.6-4.2,11.4-6.3c0.1-0.1,0.2-0.2,0.3-0.2c3.1-1.4,6.4-2.6,9.4-4.1
		c2.1-1,3.9-2.5,5.9-3.8c0.4-0.1,0.7-0.3,1.1-0.4c1.4-0.5,2.9-0.8,4.3-1.5c7.9-4.2,15.7-8.4,23.5-12.7c2.3-1.3,4.5-2.9,6.8-4.3
		c0.1-0.1,0.2-0.2,0.3-0.2c5-2.7,9.9-5.5,14.9-8.2c0.5-0.3,0.9-0.6,1.4-0.9c3-1.7,5.9-3.4,8.9-5.1c0.2-0.1,0.5-0.3,0.7-0.4
		c4.1-2.4,8.1-4.7,12.2-7.1c0.1-0.1,0.2-0.2,0.4-0.3c1.1-0.4,2.2-0.7,3.2-1.3c4.1-2.4,8.1-4.8,12.1-7.2c2.4-1.5,4.7-3.1,7-4.7
		c0.1-0.1,0.2-0.2,0.4-0.3c3.1-1.9,6.2-3.9,9.3-5.8c0.1-0.1,0.2-0.2,0.3-0.2c3.9-2.4,7.7-4.8,11.6-7.2c0.1-0.1,0.2-0.2,0.3-0.3
		c0.4-0.3,0.9-0.5,1.3-0.8c0.1-0.1,0.2-0.2,0.4-0.3c0.4-0.3,0.8-0.5,1.3-0.8c0.1-0.1,0.2-0.2,0.4-0.3c1.7-1,3.3-2,5-3.1
		c0.3-0.3,0.6-0.5,0.9-0.8c0.6-0.4,1.2-0.8,1.8-1.2c0.6-0.4,1.2-0.8,1.8-1.1c2.6-1.7,5.2-3.4,7.9-5c0.1-0.1,0.2-0.2,0.3-0.3
		c0.4-0.3,0.8-0.7,1.2-1c0,0,0,0,0,0c2.9-1.9,5.8-3.8,8.8-5.7c0.1-0.1,0.2-0.2,0.4-0.3c2.9-1.8,5.9-3.5,8.7-5.4
		c0.8-0.5,1.4-1.4,2.1-2.2c0.1-0.1,0.2-0.2,0.3-0.2c0.4-0.3,0.9-0.6,1.3-0.9c0,0,0,0,0,0c4.7-1.4,7.9-4.9,11.4-8
		c0.1-0.1,0.2-0.2,0.3-0.2c1.9-1.3,3.8-2.7,5.7-4c0.1-0.1,0.2-0.2,0.3-0.3c0.4-0.3,0.8-0.7,1.2-1c0,0,0,0,0,0
		c0.4-0.3,0.8-0.6,1.2-0.8c0.1-0.1,0.2-0.2,0.4-0.3c1.9-1.3,3.7-2.7,5.6-4c0.6-0.5,1.3-0.9,1.9-1.4c2.6-2,5.2-4,7.8-6
		c0.8-0.7,1.6-1.4,2.4-2.1c2.2-1.7,4.5-3.4,6.7-5c0.5-0.4,1.1-0.9,1.6-1.3c0.9-0.7,1.8-1.3,2.7-2c0.3-0.3,0.6-0.5,0.9-0.8
		c0.6-0.5,1.2-1,1.8-1.4c0.3-0.2,0.6-0.5,0.9-0.7c1.5-1.2,3-2.4,4.5-3.5c0.2-0.2,0.4-0.4,0.6-0.6c1.8-1.4,3.5-2.8,5.3-4.2
		c0.7-0.6,1.4-1.2,2.1-1.8c1.5-1.2,3-2.4,4.4-3.6c0,0,0.1-0.1,0.1-0.1c1-1,2-1.9,3-2.9c0,0,0,0,0,0c2-1.7,4.1-3.4,6.1-5.1
		c1.7-1.7,3.5-3.5,5.2-5.2c1.6-1.4,3.3-2.8,4.9-4.3c0.4-0.4,0.7-0.7,1.1-1.1c1.5-1.4,3-2.7,4.5-4.1c0,0,0.1-0.1,0.1-0.1
		c1.4-1.4,2.8-2.9,4.2-4.3c0,0,0,0,0,0c0.4-0.3,0.7-0.7,1.1-1c0.4-0.4,0.7-0.8,1.1-1.2c2-2,3.9-4,5.9-6c0,0,0,0,0,0
		c0.5-0.6,1-1.2,1.5-1.7c1.2-1.2,2.3-2.4,3.5-3.6c0.6-0.8,1.3-1.5,1.9-2.3c0.3-0.3,0.5-0.6,0.8-0.9c0.3-0.4,0.7-0.7,1-1.1
		c0,0,0,0,0,0c0.7-0.7,1.4-1.4,2.1-2.1c0,0,0,0,0,0c1-1.3,2-2.6,3.1-3.9c0.6-0.7,1.2-1.3,1.9-2c0.3-0.4,0.6-0.7,1-1.1c0,0,0,0,0,0
		c0.8-1.1,1.7-2.3,2.5-3.4c0.3-0.3,0.5-0.6,0.8-0.9c0.6-0.8,1.3-1.6,1.9-2.4c0.1-0.1,0.1-0.2,0.2-0.4c1.7-2.4,3.5-4.8,5.2-7.2
		c0.1-0.1,0.1-0.3,0.2-0.4c1.6-2.1,3.3-4.1,4.6-6.4c1.9-3.2,3.6-6.7,5.4-10c0.1-0.1,0.2-0.2,0.2-0.4c0.9-1.7,2-3.3,2.7-5
		c1.6-4.4,2.9-8.9,4.4-13.4c0-0.3,0.1-0.6,0.1-0.9c0.3-0.9,0.6-1.9,0.9-2.8c0.1-1.9,0.1-3.9,0.2-5.8c0-2.6,0-5.1,0-7.7
		c0-0.3-0.1-0.6-0.1-0.9c-0.3-1.9-0.3-3.9-0.9-5.7c-1.4-4.1-2.9-8.2-6.8-10.8c-0.4-0.4-0.7-0.8-1.1-1.2c-2.6-2.1-5.1-4.2-7.7-6.2
		c-0.3-0.3-0.6-0.5-0.9-0.8c-0.4-0.5-0.7-1.1-1.2-1.3c-4.4-1.9-8.8-3.8-13.3-5.5c-1.4-0.6-3.1-0.6-4.6-0.8c-0.3,0-0.6-0.1-0.9-0.1
		c-1-0.6-1.9-1.5-3-1.6c-8.8-1.2-17.5-2.9-26.3-3.1c-11.7-0.4-23.5,0.2-35.2,0.7c-7.8,0.4-15.6,1.5-23.4,2.1
		c-2.3,0.2-2.8,1.2-2.8,3.2c0.1,8.8,0.1,17.6,0,26.4c-0.1,18.7-0.3,37.3-0.4,56c0,5.1,0.4,10.2,0.3,15.3c0,1.5-0.9,3.2-1.8,4.5
		c-1.3,1.9-3.1,3.5-4.6,5.2c-0.6,0.6-1.3,1.3-1.9,1.9c-0.4,0.3-0.7,0.7-1.1,1c-0.4,0.4-0.7,0.7-1.1,1.1c-1.1,1-2.3,2-3.4,3
		c-0.1,0.1-0.2,0.2-0.3,0.3c-0.4,0.4-0.7,0.7-1.1,1.1c-0.4,0.3-0.8,0.7-1.1,1c-0.8,0.6-1.6,1.3-2.3,1.9c0,0,0,0,0,0
		c-0.4,0.3-0.7,0.7-1.1,1c-0.3,0.3-0.6,0.5-0.9,0.8c-1.3,1.2-2.7,2.3-4,3.5c-0.3,0.3-0.6,0.5-0.9,0.8c-0.8,0.6-1.6,1.3-2.3,1.9
		c-0.1,0.1-0.2,0.2-0.3,0.3c-2.1,1.7-4.1,3.4-6.2,5.1c-0.3,0.3-0.6,0.6-0.9,0.8c-0.6,0.4-1.2,0.9-1.8,1.3c-0.1,0.1-0.2,0.2-0.3,0.3
		c-0.8,0.6-1.6,1.3-2.3,1.9c-0.3,0.3-0.6,0.5-0.9,0.8c-0.6,0.5-1.2,0.9-1.8,1.4c-0.3,0.2-0.6,0.5-0.9,0.7c-2.2,1.7-4.4,3.4-6.7,5.1
		c-0.3,0.3-0.6,0.5-0.9,0.8c-0.6,0.4-1.2,0.9-1.8,1.3c-0.1,0.1-0.2,0.2-0.4,0.3c-0.4,0.3-0.8,0.6-1.2,0.9c-0.1,0.1-0.2,0.2-0.3,0.3
		c-3.3,2.2-6.6,4.4-9.8,6.8c-1.8,1.3-3.4,2.8-5,4.2c-0.1,0.1-0.2,0.2-0.4,0.3c-0.4,0.3-0.8,0.6-1.2,0.9c-0.1,0.1-0.2,0.2-0.3,0.3
		c-1.4,0.6-2.8,1.3-4.5,2.1c0-1.3,0-2.3,0-3.3c0-47.7,0-95.5-0.1-143.2c0-0.9,0.1-1.8-0.1-2.7c-0.1-0.6-0.9-1.5-1.2-1.4
		c-2.4,0.6-4.8,1.4-7.2,2.2c-0.5,0.1-1,0.1-1.4,0.2c-2.2,0.7-4.4,1.4-6.7,2c-0.3,0-0.6,0.1-0.9,0.1c-1.1,0.3-2.3,0.6-3.4,1
		c-0.3,0-0.6,0.1-0.9,0.1c-0.6,0-1.2-0.1-1.8,0.1c-6,1.7-11.9,3.4-17.9,5c-4.6,1.3-9.3,2.6-13.9,3.9c-2.2,0.6-3.3,1.8-3.3,4.4
		c0.3,10.5,0.4,21,0.5,31.5c0.1,45.6,0.1,91.1,0.2,136.7c0,1.9-0.7,2.9-2.2,3.9c-2.1,1.3-4.1,2.8-6.1,4.2c-0.1,0.1-0.2,0.2-0.4,0.2
		c-3.1,1.9-6.3,3.8-9.4,5.6c-0.1,0.1-0.2,0.2-0.4,0.3c-5.5,3.2-10.9,6.3-16.4,9.5c-0.1,0.1-0.2,0.2-0.4,0.2
		c-4.6,2.6-9.1,5.2-13.7,7.8c-0.1,0.1-0.2,0.2-0.4,0.2c-0.7,0.2-1.4,0.3-2,0.6c-7.4,4-14.8,8-22.2,12c-0.8,0.4-1.7,0.6-3.2,1.2
		c0-64.1,0-127.6,0-192c-4.2,1.9-7.7,3.4-11.2,5c-0.5,0.2-0.9,0.4-1.4,0.5c-0.4,0.2-0.8,0.3-1.2,0.5c-0.4,0.1-0.8,0.3-1.1,0.4
		c-2.6,0.8-5.2,1.5-7.8,2.5c-1.8,0.7-3.4,1.7-5.1,2.5c-0.3,0.1-0.6,0.2-0.9,0.2c-4.5,1.6-9,3.1-13.4,4.8c-1.6,0.6-3.1,1.5-4.6,2.3
		c-0.6,0.3-1.3,0.6-1.9,0.8c-1.9,0.6-3.9,1.4-5.8,1.8c-3.2,0.7-4.1,2.7-4,5.9c0.3,27.7,0.4,55.4,0.5,83c0.1,36.3,0,72.6,0.1,109
		c0,1.8-0.6,2.8-2.2,3.5c-2.7,1.2-5.4,2.4-8.1,3.6c-15.9,7.2-31.8,14.4-47.6,21.6c-2.7,1.2-5.4,2.7-8,4c-0.3,0.1-0.6,0.2-0.9,0.2
		c-3,1-6,2-9.4,3.1c0-6.5,0-12.4,0-18.3c0-61.6-0.1-123.3-0.1-184.9c0-47.6,0-95.1,0-142.7c0-1.4,0-2.8,0.1-4.3
		c5.9,0,11.8-0.1,17.7-0.1c1.2,0.1,2.3,0.3,3.5,0.3c17.1,0,34.1,0,51.2,0c1,0,2.1,0.1,3.3,0.2c0,1.2,0,2.1,0,3
		c0,36.2,0,72.4,0.1,108.6c0,0.8-0.2,1.7,0.1,2.4c0.2,0.5,1.3,1.1,1.7,1c0.9-0.3,1.7-1.1,2.5-1.7c0.1-0.1,0.2-0.2,0.3-0.3
		c0.6-0.2,1.3-0.5,1.9-0.7c0.1-0.1,0.2-0.2,0.4-0.3c4-1.6,7.9-3.3,11.9-4.9c0.5-0.2,1-0.4,1.5-0.6c2.9-1,5.8-1.8,8.6-2.9
		c2.7-1.1,5.2-2.5,7.8-3.8c0.3-0.1,0.5-0.3,0.8-0.4c0.6-0.2,1.2-0.5,1.9-0.7c0.1-0.1,0.2-0.2,0.4-0.2c4-1.6,8-3.2,12-4.8
		c0.3-0.1,0.6-0.1,0.9-0.2c0.8-0.3,1.5-0.6,2.3-1c0.4-0.1,0.8-0.2,1.2-0.4c0.6-0.3,1.1-0.6,1.7-0.9c0,0,0.2-0.1,0.2-0.1
		c0.2-1.2,0.6-2.3,0.6-3.5c-0.1-96.1-0.2-192.3-0.4-288.4c0-2.7,0.6-3.5,3.4-3.5c22.9,0.1,45.9,0,68.8,0c3.8,0,3.8,0,3.8,3.9
		c0,86.5,0.1,173,0.1,259.6c0,0.6,0,1.3,0,1.9c-0.1,2,0.6,2.9,2.8,2.1c2.1-0.8,4.3-1.2,6.4-2c2.5-0.9,5-2.1,7.5-3.1
		c0.3-0.1,0.6-0.1,0.9-0.2c0.8-0.3,1.7-0.7,2.5-1c0.3-0.1,0.6-0.1,0.9-0.2c0.7,0,1.4,0,2-0.1c9.9-2.9,19.7-5.8,29.6-8.8
		c1.8-0.6,3.5-1.5,5.2-2.3c0,0,0.1-0.1,0.1-0.1c0.3-1,0.7-1.9,0.7-2.9c0-30,0-59.9,0-89.9c0-0.9-0.3-1.9-0.5-2.8
		c0-0.4,0.1-0.7,0.1-1.1c1.3,0,2.5-0.1,3.8-0.1c24.3,0,48.6,0,72.9-0.1c0,0,0,0,0,0c-0.2,1.2-0.6,2.5-0.5,3.7
		c0.1,23.9,0.3,47.8,0.4,71.7c0,0.1,0,0.2,0,0.3c-0.2,2.2,0.8,2.9,2.9,2.5c8.1-1.5,16.3-3.1,24.4-4.5c5.5-0.9,11.1-1.7,16.7-2.4
		c6.4-0.8,12.8-1.4,19.2-2.2c0.9-0.1,1.8-0.7,2.6-1.1c0.7,0,1.3-0.1,2-0.1c4.2-0.3,8.4-0.6,12.6-0.9c1.6-0.1,3.1-0.1,4.7-0.2
		c0.8,0,1.7,0,2.5,0c0.6,0,1.2,0,1.8,0c6.3,0,12.7,0,19-0.1c0.6,0,1.1,0,1.7,0c0.4,0,0.8,0,1.2,0.1c0.8,0,1.7,0.1,2.5,0.1
		c3.6,0.4,7.3,0.7,10.9,1.1c0.3,0,0.6,0,0.9,0c0.5,0.2,1.1,0.6,1.6,0.7c5.5,1.1,10.9,2.1,16.4,3.2c3.2,0.7,6.4,1.5,9.6,2.2
		c0.1,0.1,0.2,0.2,0.4,0.2c0.9,0.5,1.7,1.1,2.6,1.6c3.3,1.7,6.7,3.3,9.9,5.1c1.9,1,3.6,2.2,5.4,3.3c0.1,0.1,0.2,0.2,0.3,0.2
		c0.9,0.8,1.9,1.7,2.8,2.5c0.2,0.2,0.3,0.4,0.5,0.6c0.3,0.6,0.7,1.2,1,1.8c2.4,4.8,5.7,9.4,6.9,14.4c2.4,10.6,0.6,21.3-3.7,31.2
		c-3.5,8-8.1,15.5-12.2,23.2c-0.8,1.5-1.5,3-2.2,4.5c-0.3,0.3-0.5,0.6-0.8,0.9c-0.9,1.4-1.9,2.7-2.8,4.1c-0.3,0.5-0.6,0.9-0.9,1.4
		c-0.5,0.6-1,1.2-1.4,1.8c-0.3,0.3-0.5,0.6-0.8,0.9c-0.7,0.9-1.4,1.8-2.1,2.7c-0.4,0.5-0.8,1.1-1.2,1.6c-1,1.2-1.9,2.3-2.9,3.5
		c-0.1,0.1-0.2,0.2-0.3,0.3c-1.4,1.7-2.7,3.3-4.1,5c-0.3,0.3-0.5,0.6-0.8,0.9c-3.1,3.2-6.2,6.5-9.3,9.7c-0.1,0.2-0.1,0.5-0.1,0.8
		c-0.3,0.3-0.5,0.6-0.8,0.9c-0.3,0.4-0.7,0.7-1,1.1c0,0,0,0,0,0c-0.4,0.3-0.7,0.7-1.1,1c-0.6,0.6-1.1,1.1-1.7,1.7
		c-0.3,0.4-0.6,0.8-0.9,1.2c0,0,0,0,0,0c-0.7,0.7-1.4,1.4-2.2,2.1c0,0,0,0,0,0c-2.6,2.5-5.1,4.9-7.7,7.4c-0.4,0.4-0.8,0.7-1.1,1.1
		c-0.7,0.7-1.4,1.4-2.1,2.1c-1,1-2,2-3.1,3c-1.5,1.4-3,2.7-4.5,4.1c-0.5,0.5-0.9,0.9-1.4,1.4c-1.5,1.4-3,2.7-4.5,4.1
		c-0.3,0.3-0.6,0.5-0.9,0.8c-1,0.8-1.9,1.6-2.9,2.5c-0.7,0.6-1.3,1.2-2,1.9c-1.3,1.2-2.7,2.3-4,3.5c-0.3,0.3-0.6,0.5-0.9,0.8
		c-0.8,0.6-1.6,1.2-2.4,1.8c-0.3,0.3-0.6,0.5-0.9,0.8c-1,0.8-1.9,1.7-2.9,2.5c-0.1,0.1-0.2,0.2-0.3,0.3c-1.1,0.9-2.2,1.8-3.3,2.7
		c0,0,0,0,0,0c-0.6,0.5-1.2,0.9-1.8,1.4c-0.7,0.6-1.3,1.2-2,1.9c-0.4,0.3-0.8,0.6-1.3,0.8c-0.1,0.1-0.2,0.2-0.3,0.3
		c-0.4,0.3-0.8,0.6-1.2,1c0,0,0,0,0,0c-1.3,1.1-2.5,2.2-3.8,3.2c0,0,0,0,0,0c-1.8,1.4-3.7,2.7-5.5,4.1c-0.3,0.3-0.6,0.5-0.9,0.8
		c-0.6,0.5-1.2,0.9-1.8,1.4c-0.3,0.3-0.6,0.5-0.9,0.8c-1.1,0.8-2.3,1.7-3.4,2.5c0,0,0,0,0,0c-1.1,0.8-2.2,1.7-3.3,2.5
		c-0.1,0.1-0.2,0.2-0.3,0.3c-0.4,0.3-0.8,0.6-1.2,0.9c-0.1,0.1-0.2,0.2-0.3,0.3c-0.8,0.6-1.6,1.2-2.4,1.9c-0.1,0.1-0.2,0.2-0.4,0.3
		c-0.8,0.6-1.6,1.2-2.4,1.7c-0.6,0.5-1.3,1-1.9,1.5c-0.4,0.3-0.8,0.6-1.2,0.9c0,0,0,0,0,0c-2.3,1.7-4.7,3.5-7,5.2
		c-0.8,0.6-1.7,1.3-2.5,1.9c-0.9,0.7-1.9,1.3-2.8,2c-0.1,0.1-0.2,0.2-0.3,0.2c-1,0.6-1.9,1.3-2.9,1.9c-0.3,0.2-0.6,0.5-0.9,0.7
		c-3.8,2.8-7.7,5.6-11.5,8.4c-0.6,0.5-1.3,0.9-1.9,1.4c-1,0.6-1.9,1.3-2.9,1.9c-0.1,0.1-0.2,0.2-0.3,0.2c-0.4,0.3-0.9,0.5-1.3,0.8
		c-0.1,0.1-0.2,0.2-0.3,0.3c-0.4,0.3-0.9,0.5-1.3,0.8c-0.1,0.1-0.2,0.2-0.3,0.3c-1,0.6-1.9,1.3-2.9,1.9c-0.1,0.1-0.2,0.2-0.3,0.3
		c-1.7,1.2-3.4,2.3-5.1,3.5c-0.7,0.4-1.3,0.9-2,1.3c-0.6,0.4-1.2,0.8-1.8,1.3c-0.5,0.3-0.9,0.6-1.4,1c-1.5,1-3,2-4.5,3
		c-0.1,0.1-0.2,0.2-0.4,0.2c-0.6,0.3-1.1,0.7-1.7,1c0,0,0,0,0,0c-0.4,0.3-0.8,0.6-1.2,0.9c-0.1,0.1-0.2,0.2-0.4,0.3
		c-3.1,2-6.3,4-9.4,6c-0.7,0.5-1.4,0.9-2,1.4c-2.6,0.7-3.7,2.2-3.7,5c0.2,18.3,0.4,36.6,0.4,55c0,2.3,0.8,2.7,2.9,2.7
		c6.1-0.1,12.2,0,18.3,0c0.9,0,1.9,0.1,2.7,0.2c0,3.7,0,7,0,10.3c0,20.7,0,41.3,0.1,62c0,2.4-0.5,3.2-3.1,3.2c-9,0-18,0.3-26.9,0.3
		c-14.4,0.1-28.8,0-43.1,0.1c-1.8,0-2.6-0.5-2.6-2.4c0-24.6,0-49.3,0-73.9c7.5,0,15,0,22.5-0.1c0.3-0.3,0.7-0.7,1-1
		c0-13.6,0-27.1,0.1-40.7c-0.4-0.3-1-1-1.2-0.9c-0.7,0.4-1.3,1.1-1.9,1.7c-0.1,0.1-0.2,0.2-0.4,0.2c-1.7,1-3.4,2-5,3
		c-0.1,0.1-0.2,0.2-0.4,0.2c-1,0.6-2,1.1-3,1.7c-0.2,0.1-0.3,0.2-0.5,0.3c-1.1,0.7-2.2,1.4-3.2,2.1c-0.1,0.1-0.2,0.2-0.3,0.3
		c-2,1.2-4.1,2.3-6.1,3.5c-0.3,0.2-0.5,0.3-0.8,0.5c-1,0.6-2,1.1-3,1.7c-0.1,0.1-0.2,0.2-0.4,0.2c-2.4,1.4-4.8,2.7-7.2,4.1
		c-0.1,0.1-0.2,0.2-0.3,0.3c-1,0.6-2,1.1-3,1.7c-0.3,0.2-0.5,0.3-0.8,0.5c-4,2.3-8,4.6-11.9,6.9c-0.1,0.1-0.2,0.2-0.4,0.3
		c-3.1,1.7-6.3,3.3-9.4,5c-0.1,0.1-0.2,0.2-0.3,0.3c-2.8,1.3-5.6,2.5-8.3,4c-2.3,1.2-4.4,2.8-6.6,4.2c-0.3,0.1-0.5,0.3-0.8,0.4
		c-0.9,0.3-1.9,0.5-2.7,1c-4.2,2.2-8.5,4.5-12.6,6.8c-2.4,1.3-4.7,2.8-7,4.1c-1.3,0.7-2.7,1.5-4,2.2c-4,0.8-4.9,1.9-4.9,5.5
		c0.1,25.4,0.4,50.9,0.4,76.3c0.1,56.5,0.1,112.9,0.2,169.4c0,1.1,0.4,2.2,0.6,3.3c0,4.8,0.1,9.5-0.1,14.3c0,1.8,0.6,2.3,2.3,2.3
		c6.9-0.1,13.8,0,20.8,0c0.2,0.2,0.5,0.5,0.7,0.7c0,12.7,0,25.5,0,38.2c-0.1,0.5-0.2,1.1-0.2,1.6c0,12.1,0,24.2,0.1,36.4
		c-1.1,0.1-2.1,0.4-3.2,0.4c-23.4,0-46.9,0-70.3-0.1c-0.9,0-1.8-0.2-2.6-0.3c0.2-1.3,0.4-2.7,0.4-4c0-7.8,0-15.7,0-23.5
		c0-14,0-28.1,0-42.1c0-2.4,0.1-4.8,0.1-7.2c0.4,0,0.7,0,1.1,0C612.8,843.4,614.6,843.4,616.4,843.4z M398.1,1021.5
		C398.1,1021.5,398.1,1021.5,398.1,1021.5c0-5.8-0.1-11.7,0-17.5c0.1-2.2-0.7-2.7-2.8-2.7c-10.7,0.1-21.4,0.1-32.1,0.1c-5,0-5,0-5,5
		c0,10.9,0.1,21.7,0,32.6c0,1.8,0.4,2.6,2.4,2.6c11.7-0.1,23.4-0.1,35,0c1.9,0,2.5-0.6,2.5-2.5
		C398,1033.1,398.1,1027.3,398.1,1021.5z M761.1,615.3c0.6,0.2,0.9,0.3,1.1,0.3c12.3,0,24.6,0,36.9,0c2,0,1.9-1.1,1.9-2.5
		c0-11.8,0-23.5,0-35.3c0-1.7-0.4-2.4-2.2-2.4c-11.9,0.1-23.7,0.1-35.6,0c-1.7,0-2.2,0.7-2.1,2.2c0.1,2.2,0,4.5,0,6.7
		C761.1,594.8,761.1,605,761.1,615.3z M492.5,836.9c0.6,0.1,1.1,0.2,1.5,0.2c12.1,0,24.1-0.1,36.2,0c2.3,0,2.1-1.3,2.1-2.8
		c0-11.4-0.1-22.8,0-34.3c0-2.5-0.8-3-3.1-2.9c-11.3,0.1-22.7,0.1-34,0.1c-0.9,0-1.7,0.1-2.8,0.1
		C492.5,810.6,492.5,823.6,492.5,836.9z M223.8,848.6c-0.2,0.6-0.3,0.8-0.3,0.9c0,12.4,0,24.8,0,37.2c0,1.8,1.1,1.7,2.3,1.7
		c11.8,0,23.5-0.1,35.3,0c1.9,0,2.4-0.6,2.4-2.5c-0.1-11.7-0.1-23.4,0-35c0-1.9-0.6-2.4-2.5-2.4c-9.4,0.1-18.9,0.1-28.3,0.1
		C229.7,848.6,226.8,848.6,223.8,848.6z M627,881.3C627.1,881.3,627.1,881.3,627,881.3c0,6,0,12,0,18.1c0,1.3,0.1,2.2,1.9,2.2
		c11.8-0.1,23.5-0.1,35.3-0.1c2.2,0,2.7-0.8,2.7-2.8c-0.1-11.6-0.2-23.2-0.2-34.8c0-2.1-0.8-2.5-2.7-2.5c-11.5,0.1-23,0.1-34.5,0
		c-2.1,0-2.6,0.7-2.5,2.7C627.1,869.8,627,875.6,627,881.3z"/>
	<path class="st1" d="M415.8,216.4c0,2.5,0,4.9,0,7.4c-0.1,1.2-0.3,2.3-0.3,3.5c0,60.5,0,121,0.1,181.5c0,62.3,0,124.6,0.2,186.9
		c0,2.9-1.2,3.7-3.4,4.4c-4.7,1.6-9.5,3.2-14.2,4.9c-8.5,2.9-17,5.9-25.5,8.7c-7.6,2.5-15.3,4.8-23,7.1c-3.1,0.9-6.2,1.8-9.7,2.8
		c0-1.5,0-2.5,0-3.4c0-27.2,0-54.3,0-81.5c0-124.6,0-249.2-0.1-373.7c0-3.6,0-3.6,3.7-3.6c22.8,0,45.7,0,68.5,0
		c1.2,0,2.4,0.4,3.7,0.6c0,0.4,0,0.7,0,1.1c-0.2,0.9-0.6,1.8-0.6,2.8c0,16,0,32,0,47.9C415.2,214.6,415.6,215.5,415.8,216.4z"/>
	<path class="st2" d="M205.4,648.1c0-1-0.1-1.8-0.1-2.6c-0.1-65.3-0.1-130.6-0.2-195.8c0-2.3,0.7-2.8,2.9-2.8c23.3,0,46.6,0,69.9,0
		c4,0,4,0,4,4c0.1,28.2,0.3,56.5,0.4,84.7c0.1,24.2,0.1,48.4,0.1,72.6c0,9.3-0.2,18.5-0.1,27.8c0,2.3-0.8,3.2-3,3.6
		c-10.1,1.8-20.1,4-30.2,5.3c-12.5,1.7-25.2,2.7-37.8,3.8C209.3,648.7,207.4,648.3,205.4,648.1z"/>
	<path class="st3" d="M415.8,161.9c-1.2-0.2-2.4-0.6-3.7-0.6c-22.8,0-45.7,0-68.5,0c-3.7,0-3.7,0-3.7,3.6c0,124.6,0,249.2,0.1,373.7
		c0,27.2,0,54.3,0,81.5c0,1,0,1.9,0,3.4c3.5-1,6.6-1.9,9.7-2.8c7.7-2.3,15.4-4.6,23-7.1c8.5-2.8,17-5.8,25.5-8.7
		c4.7-1.6,9.4-3.3,14.2-4.9c2.2-0.7,3.4-1.6,3.4-4.4c-0.1-62.3-0.2-124.6-0.2-186.9c0-60.5-0.1-121-0.1-181.5c0-1.2,0.2-2.3,0.3-3.5
		c0.2,1.1,0.6,2.2,0.6,3.3c0.1,52.3,0.1,104.6,0.2,157c0,6.3,0,12.5,0,19.5c3.7-1.9,6.6-3.4,9.4-4.8c7.3-3.7,14.7-7.5,22.1-11.2
		c7.7-3.9,15.5-7.7,23.2-11.4c1.7-0.8,2.1-2,2.1-3.8c-0.1-48.1-0.1-96.2-0.1-144.3c0-0.9,0.6-1.8,1-2.6c0,1.4-0.1,2.8-0.1,4.3
		c0,47.6,0,95.1,0,142.7c0,61.6,0,123.3,0.1,184.9c0,5.9,0,11.8,0,18.3c3.3-1.1,6.4-2.1,9.4-3.1c-2.9,1.4-5.9,2.9-8.9,4.3
		c-0.2,0.1-1.1-0.6-1.3-1.2c-0.2-0.6-0.1-1.4-0.1-2.1c0-63.8,0-127.5,0-191.3c0-1.2,0-2.5,0-4.2c-4.5,2.1-8.8,4-13,6
		c-7.2,3.4-14.3,6.7-21.4,10.2c-6.6,3.3-13.1,6.8-19.7,10.1c-1.8,0.9-2.3,2-2.3,4c0.1,28.2,0.1,56.5,0.1,84.7
		c0,34.4,0,68.7,0.1,103.1c0,2.8-1,3.9-3.5,4.7c-8.8,2.9-17.5,6.2-26.4,9.1c-12.6,4.1-25.2,8.1-37.8,12.1c-3.1,1-6.3,1.9-10,2.9
		c-0.1-1.6-0.4-3-0.4-4.3c0-62.4,0-124.8-0.1-187.3c0-56.5,0-113-0.1-169.5c-0.1-33.3-0.3-66.5-0.4-99.8c0-3.7,0-3.7,3.7-3.7
		c23.7,0,47.3,0,71,0C414.1,160.4,416.3,159.1,415.8,161.9z M471.4,377c0,0.2,0,0.4,0,0.6c0.4-0.1,0.7-0.1,1.1-0.2c0,0,0-0.3,0-0.4
		C472.1,377,471.8,377,471.4,377z M461.2,382.6c-0.1-0.1-0.1-0.2-0.2-0.4c-0.3,0.2-0.6,0.4-0.9,0.6c0.1,0.1,0.1,0.2,0.2,0.3
		C460.6,382.9,460.9,382.8,461.2,382.6z M463.4,381.5c-0.1-0.1-0.1-0.3-0.2-0.4c-0.3,0.2-0.7,0.4-1,0.5c0.1,0.1,0.1,0.3,0.2,0.4
		C462.7,381.8,463.1,381.7,463.4,381.5z M469.4,377.9c0,0.1,0,0.3,0,0.4c0.3,0,0.6-0.1,0.8-0.1c0,0,0-0.2,0-0.2
		C470,378,469.7,377.9,469.4,377.9z M468,379.3c0-0.1,0-0.2,0.1-0.3c-0.2,0-0.5-0.1-0.7,0c0,0-0.1,0.2-0.1,0.4
		C467.5,379.3,467.8,379.3,468,379.3z M465.5,380.1l-0.1,0.1l0.2,0L465.5,380.1z"/>
	<path class="st3" d="M701.1,283.8c-2.5,1.1-4.9,2.2-7.5,3.1c-2.1,0.8-4.3,1.2-6.4,2c-2.2,0.8-2.8,0-2.8-2.1c0-0.6,0-1.3,0-1.9
		c0-86.5-0.1-173-0.1-259.6c0-3.9,0-3.9-3.8-3.9c-22.9,0-45.9,0.1-68.8,0c-2.8,0-3.4,0.8-3.4,3.5c0.2,96.1,0.3,192.3,0.4,288.4
		c0,1.2-0.4,2.3-0.6,3.5c-0.1-1.3-0.2-2.7-0.2-4c-0.1-83.7-0.1-167.5-0.2-251.2c0-12.4-0.2-24.8-0.4-37.2c0-3.9,0-4,3.8-4
		c23.3,0,46.6,0,69.9,0c4.2,0,4.2,0,4.2,4.1c0.1,58.2,0.1,116.4,0.2,174.6c0,28.6,0.3,57.2,0.4,85.8c0,0.8,0.1,1.6,0.2,3
		c2.3-0.7,4.4-1.3,6.5-1.8C695.3,285.3,698.2,284.6,701.1,283.8z"/>
	<path class="st4" d="M351.3,702.3c3.8-1.3,7.5-2.6,11.3-3.8c0.4-0.1,1.3,0.8,1.6,1.4c0.3,0.5,0.1,1.2,0.1,1.9c0,18.2,0,36.5,0,54.7
		c0.1,74.4,0.3,148.8,0.4,223.3c0,4.1,0,4.1-4.2,4.1c-6.5,0-12.9,0-19.5,0c0,25.6,0,51.1,0,76.6c-1.9,0.1-1.4-1.3-1.4-2.2
		c0-6.1,0-12.2,0-18.3c0-17.9,0-35.8-0.1-53.7c0-2.5,0.7-3.3,3.2-3.2c6.2,0.2,12.4,0,18.6,0.1c2,0,2.6-0.6,2.6-2.6
		c-0.1-65.8-0.1-131.6-0.2-197.4c0-26.8-0.2-53.6-0.3-80.4c0-1,0-1.9,0-3.4c-3.3,1-6.3,1.9-9.3,2.7
		C353.2,702.2,352.3,702.2,351.3,702.3z"/>
	<path class="st3" d="M743.7,557.9c0,24.6,0,49.3,0,73.9c0,2,0.8,2.4,2.6,2.4c14.4-0.1,28.8,0,43.1-0.1c9,0,18-0.4,26.9-0.3
		c2.6,0,3.1-0.8,3.1-3.2c-0.1-20.7-0.1-41.3-0.1-62c0-3.3,0-6.6,0-10.3c-0.9-0.1-1.8-0.2-2.7-0.2c-6.1,0-12.2-0.1-18.3,0
		c-2,0-2.8-0.4-2.9-2.7c0-18.3-0.2-36.6-0.4-55c0-2.9,1.1-4.4,3.7-5c-2.5,2.1-2.3,4.9-2.3,7.7c0.1,16.9,0,33.8,0,50.7
		c0,1.1,0,2.1,0,3.3c7,0,13.6,0.1,20.2-0.1c2.7-0.1,3.6,0.6,3.6,3.4c-0.1,23.7-0.1,47.5,0,71.2c0,2.5-0.5,3.5-3.3,3.5
		c-23.7-0.1-47.5,0-71.2,0c-2.3,0-3.2-0.6-3.2-3c-0.1-23.9-0.2-47.8-0.3-71.7C742.3,558.4,742.3,558.4,743.7,557.9z"/>
	<path class="st3" d="M416.8,983.8c-6.8,0-13.7,0-20.5,0c-3.8,0-3.8-0.1-3.8-3.7c0-45.5,0-91-0.1-136.5
		c-0.1-50.3-0.3-100.5-0.4-150.8c0-4.2,0.1-4.3,4.4-5c-0.1,0.2-0.2,0.4-0.3,0.4c-4,0.8-3.1,4-3.1,6.7c0.2,95,0.4,190,0.5,285
		c0,0.8,0,1.6,0,2.7c1.1,0.1,2,0.2,3,0.2c5.9,0,11.9,0,17.8,0C415.1,983,415.9,983.5,416.8,983.8z"/>
	<path class="st5" d="M108.2,620.1c-1,0.2-2,0.3-2.9,0.5c-8.8,1.9-17.6,3.8-26.4,5.6c-0.8,0.2-1.6-0.2-2.4-0.3
		c0.2-0.9,0.2-2.1,0.8-2.6c2.2-1.8,4.5-3.5,6.8-5.2c8.8-6.4,17.7-12.8,26.5-19.2c7.3-5.4,14.6-10.9,21.9-16.3
		c2.1-1.5,4.1-3.1,6.3-4.6c0.8-0.5,1.8-0.7,3.1-1.2c0,1.4,0.3,2.5,0,3.4c-4.8,15-9.7,29.9-14.5,44.9c-3.9,12-7.7,24-11.5,36.1
		c-0.1,0.2-0.1,0.4-0.2,0.5c-0.7,0.8-1.3,1.7-2,2.5c-0.6-1-1.5-2-1.6-3.1c-0.7-6.2-1.2-12.5-1.6-18.7c-0.3-4.9-0.4-9.9-0.7-14.8
		C109.3,625.2,108.7,622.9,108.2,620.1z M113.5,659.5c0.3,0,0.6,0.1,1,0.1c8.6-26.7,17.2-53.5,25.8-80.2c-0.2-0.2-0.4-0.3-0.6-0.5
		c-20,14.7-40.1,29.4-60.1,44.1c0.2,0.3,0.3,0.6,0.5,0.9c0.8-0.1,1.6-0.1,2.3-0.2c8-1.7,15.9-3.4,23.9-5c2.1-0.4,3.6,0.1,3.8,2.5
		c0.2,2,0.3,3.9,0.5,5.9c0.9,10,1.7,20,2.6,29.9C113.3,657.8,113.4,658.6,113.5,659.5z"/>
	<path class="st4" d="M75.7,694.6c0.3,0.5,0.8,1,0.8,1.5c0.8,10.4,6.2,17.9,14.3,24.2c7.1,5.4,15.1,8.4,23.5,10.8
		c9.6,2.8,19.3,4.2,29.2,4.7c4.2,0.2,8.4,0.8,12.6,0.9c3.7,0.1,7.4-0.2,11.2-0.4c4.5-0.2,9-0.3,13.6-0.6c7.9-0.6,15.9-1.2,23.8-2.1
		c7.3-0.8,14.5-1.9,21.8-2.7c3.4-0.4,3.5-0.2,3.5,3.2c0,20.2,0,40.5,0,60.7c0,10.7,0.3,21.4,0.4,32.1c0,4.3-0.1,4.4-4.3,4.4
		c-6.8,0-13.7,0-20.5-0.1c0.8-0.3,1.7-0.8,2.5-0.8c6-0.1,12.1-0.1,18.1,0c2.3,0,2.9-0.8,2.9-3c-0.1-31-0.1-62.1-0.1-93.1
		c0-2.4-1-2.6-2.9-2.4c-13.4,1.6-26.8,3.6-40.2,4.7c-10.2,0.9-20.4,1.2-30.6,1c-9.6-0.2-19.3-1.3-28.9-2.6
		c-6.2-0.8-12.3-2.3-18.2-4.4c-12-4.2-22.7-10.4-29.1-22C76.8,704.2,75.3,699.6,75.7,694.6z"/>
	<path class="st3" d="M484.7,572.2c2.7-1.3,5.3-2.8,8-4c15.9-7.2,31.8-14.4,47.6-21.6c2.7-1.2,5.4-2.4,8.1-3.6
		c1.6-0.7,2.2-1.7,2.2-3.5c-0.1-36.3,0-72.6-0.1-109c-0.1-27.7-0.2-55.4-0.5-83c0-3.2,0.8-5.1,4-5.9c2-0.5,3.9-1.2,5.8-1.8
		c-2,1-3.9,2.3-6,3c-2.1,0.7-2.4,1.9-2.4,3.8c0.1,20.4,0,40.8,0.1,61.2c0,43.8,0,87.6,0.1,131.4c0,2.6-0.9,3.8-3.2,4.8
		c-15,6.8-29.9,13.8-44.8,20.6c-5.8,2.7-11.8,5.1-17.7,7.6C485.5,572.3,485.1,572.2,484.7,572.2z"/>
	<path class="st3" d="M661.9,826.8c-0.2-1.1-0.6-2.2-0.6-3.3c-0.1-56.5-0.1-112.9-0.2-169.4c0-25.4-0.3-50.9-0.4-76.3
		c0-3.7,0.9-4.7,4.9-5.5c-4.4,1.8-3.5,5.6-3.5,9.1c0,80.8,0.1,161.5,0.1,242.3C662.2,824.7,662,825.8,661.9,826.8z"/>
	<path class="st3" d="M676.7,474.3c2-1.4,4-2.9,6.1-4.2c1.5-0.9,2.2-2,2.2-3.9c-0.1-45.6-0.1-91.1-0.2-136.7c0-10.5-0.2-21-0.5-31.5
		c-0.1-2.6,1.1-3.8,3.3-4.4c4.6-1.3,9.2-2.6,13.9-3.9c6-1.7,11.9-3.4,17.9-5c0.6-0.2,1.2-0.1,1.8-0.1c-1.8,0.7-3.6,1.6-5.5,2.2
		c-8.9,2.6-17.8,5.2-26.8,7.6c-2.3,0.6-3.1,1.5-3.1,3.9c0.1,52.8,0.1,105.6,0.1,158.3c0,3.3-0.1,6.7,0,10c0.1,1.8-0.4,3-1.9,3.8
		C681.6,471.8,679.2,473,676.7,474.3z"/>
	<path class="st3" d="M597.3,325c3.5-1.5,6.9-3.1,11.2-5c0,64.3,0,127.8,0,192c1.5-0.6,2.4-0.8,3.2-1.2c7.4-4,14.8-8,22.2-12
		c0.6-0.3,1.3-0.4,2-0.6c-2.5,1.5-4.9,3.2-7.4,4.6c-5.6,3.1-11.3,6.2-16.9,9.3c-3.1,1.7-3.6,1.5-3.6-2.1c0-61.4,0-122.8,0-184.2
		c0-1.1,0-2.1,0-3.8c-3.1,1.1-5.8,2-8.5,2.9C598.7,325,598,325,597.3,325z"/>
	<path class="st3" d="M551.1,779.9c-7,0-14-0.1-21,0c-2.7,0.1-3.5-0.9-3.3-3.4c0.2-3,0-5.9,0-8.9c-0.1-42.1-0.3-84.1-0.5-126.2
		c0-2.6,0.7-4.2,3.2-5c2.3-0.7,4.5-1.6,6.7-2.4c-2.1,1.1-4.1,2.4-6.3,3.4c-1.7,0.7-2.2,1.8-2.2,3.5c0.1,45.2,0.1,90.3,0.1,135.5
		c0,2,0.6,2.6,2.6,2.6c6.1-0.1,12.2-0.1,18.3,0C549.5,778.9,550.3,779.5,551.1,779.9z"/>
	<path class="st3" d="M812.7,374.4c1.6-1.7,3.3-3.3,4.6-5.2c0.9-1.3,1.8-3,1.8-4.5c0.1-5.1-0.3-10.2-0.3-15.3
		c0.1-18.7,0.3-37.3,0.4-56c0.1-8.8,0-17.6,0-26.4c0-2.1,0.5-3.1,2.8-3.2c7.8-0.6,15.6-1.7,23.4-2.1c11.7-0.5,23.5-1.1,35.2-0.7
		c8.8,0.3,17.6,2,26.3,3.1c1,0.1,2,1.1,3,1.6c-2.2-0.3-4.5-0.7-6.7-1c-6.9-0.9-13.8-2.1-20.8-2.4c-10.1-0.5-20.3-0.9-30.4-0.4
		c-10.1,0.4-20.1,2-30.2,3.1c-0.6,0.1-1.2,1.1-1.6,1.8c-0.2,0.4,0,1.1,0,1.6c0,31.8,0,63.7,0.1,95.5c0,3-0.7,5.2-3,7
		C815.7,372,814.2,373.2,812.7,374.4z"/>
	<path class="st3" d="M554.4,339.1c-0.8,0.6-1.6,1.4-2.5,1.7c-0.4,0.1-1.5-0.5-1.7-1c-0.3-0.7-0.1-1.6-0.1-2.4
		c0-36.2,0-72.4-0.1-108.6c0-0.9,0-1.8,0-3c-1.2-0.1-2.2-0.2-3.3-0.2c-17.1,0-34.1,0-51.2,0c-1.2,0-2.3-0.2-3.5-0.3
		c0.9-0.2,1.8-0.6,2.8-0.6c17.5,0,35-0.1,52.6-0.1c3.5,0,3.6,0.1,3.6,3.6c0,20.3,0,40.6,0.1,60.9c0.1,16,0.2,32,0.4,47.9
		c0,0.7,0.1,1.4,0.2,2.2C552.6,339.2,553.5,339.1,554.4,339.1z"/>
	<path class="st3" d="M474.4,779.8c0.2,1.4,0.5,2.8,0.5,4.3c0,22.8,0.1,45.7,0.1,68.5c0,1.6-0.2,3,2.2,2.9
		c24.6-0.1,49.3-0.1,73.9-0.1c-0.2,0.5-0.3,1.2-0.6,1.3c-0.6,0.2-1.4,0.1-2.1,0.1c-23.6,0-47.3,0-70.9,0c-3.5,0-3.5,0-3.5-3.7
		c0-23,0-46,0-69C473.9,782.8,474.2,781.3,474.4,779.8z"/>
	<path class="st4" d="M282.4,887.8c-0.2-0.7-0.6-1.5-0.6-2.2c0-17.2,0-34.3,0-51.5c0-0.8,0.1-1.6,0.2-2.7c-1-0.1-2-0.2-2.9-0.2
		c-6.2,0-12.4-0.1-18.6,0c-2.2,0-3-0.7-3-2.9c0-33.4,0-66.7,0-100.1c0-2.7,2.5-4.2,5.9-3.5c-0.2,0.2-0.4,0.4-0.6,0.5
		c-4.4,1.8-4.4,1.8-4.4,6.5c0,31.7,0.1,63.4,0.1,95.1c0,2.7,0.7,3.6,3.5,3.5c6-0.2,12,0,18.1-0.1c1.9,0,2.8,0.4,2.8,2.5
		c-0.1,17.9,0,35.8,0,53.6C282.7,886.8,282.5,887.3,282.4,887.8z"/>
	<path class="st3" d="M885.1,242.2c-0.9,0.4-1.7,1-2.6,1.1c-6.4,0.8-12.8,1.4-19.2,2.2c-5.6,0.7-11.2,1.5-16.7,2.4
		c-8.2,1.4-16.3,2.9-24.4,4.5c-2.1,0.4-3.1-0.3-2.9-2.5c0-0.1,0-0.2,0-0.3c-0.1-23.9-0.3-47.8-0.4-71.7c0-1.2,0.4-2.5,0.5-3.7
		c0.3,1,0.8,2.1,0.8,3.1c0.1,23.4,0,46.8,0.1,70.2c0,1.1,0,2.1,0,3.5c1.1,0,1.9,0.1,2.6,0c9.5-1.6,19-3.5,28.6-4.9
		c10.7-1.6,21.4-2.8,32.2-4.2C884.1,241.8,884.6,242.1,885.1,242.2z"/>
	<path class="st3" d="M734.6,281.3c2.4-0.8,4.8-1.6,7.2-2.2c0.3-0.1,1.1,0.8,1.2,1.4c0.2,0.8,0.1,1.8,0.1,2.7
		c0,47.7,0,95.5,0.1,143.2c0,1,0,1.9,0,3.3c1.7-0.8,3.1-1.4,4.5-2.1c-1.4,1.3-2.8,2.5-4.2,3.8c-0.3-0.1-0.6-0.3-1-0.4
		c0-50.2,0-100.4,0-150.6C739.4,280.7,737,281,734.6,281.3z"/>
	<path class="st6" d="M214.4,720.3c-0.9,0.4-1.8,1.1-2.7,1.2c-8.5,0.9-17,1.8-25.6,2.6c-3.4,0.3-6.8,0.5-10.2,0.6
		c-4.8,0.2-9.6,0.6-14.4,0.5c-7.8-0.3-15.5-0.8-23.3-1.5c-5.3-0.5-10.7-1.2-15.9-2.3c-4.5-1-8.9-2.5-13.3-4c-2.6-0.9-5-2.4-7.5-3.5
		c-4.2-1.9-7.6-4.9-10.5-8.4c1.5,1.1,3,2.1,4.5,3.2c1.8,1.3,3.5,2.8,5.4,3.8c7.6,3.8,15.5,6.8,24,8.3c13,2.3,26.1,3.5,39.3,2.9
		c10.2-0.4,20.4-0.9,30.6-1.6c5.9-0.4,11.7-1.4,17.6-2C213.1,720.1,213.7,720.3,214.4,720.3z"/>
	<path class="st3" d="M609.9,843.5c0,2.4-0.1,4.8-0.1,7.2c0,14,0,28.1,0,42.1c0,7.8,0,15.7,0,23.5c0,1.3-0.3,2.7-0.4,4
		c-0.3-0.7-0.9-1.5-0.9-2.2c-0.1-24.1-0.1-48.2-0.1-72.3C608.4,844.7,607.9,843.2,609.9,843.5z"/>
	<path class="st3" d="M742.6,175.4c0.2,0.9,0.5,1.9,0.5,2.8c0,30,0,59.9,0,89.9c0,1-0.5,1.9-0.7,2.9c0-1-0.1-2-0.1-3
		c0-29.9,0-59.9,0-89.8C742.2,177.3,742.5,176.4,742.6,175.4z"/>
	<path class="st3" d="M984.5,336.8c0.7-1.5,1.4-3,2.2-4.5c4.1-7.7,8.7-15.2,12.2-23.2c4.3-9.9,6-20.5,3.7-31.2
		c-1.1-5.1-4.5-9.6-6.9-14.4c-0.3-0.6-0.7-1.2-1-1.8c1.2,1.3,2.8,2.5,3.7,4c4.1,6.8,7.3,14,6.3,22.3c-0.6,5.4-1.2,10.6-3,15.9
		c-3.7,11.2-9.4,21.4-15.7,31.2C985.7,335.8,985,336.3,984.5,336.8z"/>
	<path class="st3" d="M468.9,662c1.1-0.7,2-1.7,3.2-2.1c7.9-3.2,16-6.2,23.9-9.4c1.9-0.8,2.7-0.4,2.7,1.7c0,17.3,0,34.6,0,51.9
		c0,0.3-0.2,0.7-0.2,1c-0.2-0.7-0.6-1.5-0.6-2.2c-0.1-16.3-0.1-32.7-0.1-49c0-0.9,0-1.7,0-2.8C488,654.7,478.4,658.3,468.9,662z"/>
	<path class="st4" d="M205.4,906.6c2.4,0,4.8,0.1,7.3,0.1c23.2,0,46.4,0,69.7,0c-0.7,0.3-1.5,0.9-2.2,0.9
		c-24.2,0.1-48.4,0.1-72.6,0.1C206.8,907.7,206.1,907,205.4,906.6z"/>
	<path class="st3" d="M819.4,174.2c-24.3,0-48.6,0-72.9,0.1c-1.3,0-2.5,0.1-3.8,0.1c0.7-0.3,1.4-0.9,2.2-0.9
		c24.1-0.1,48.2-0.1,72.2,0C817.8,173.4,818.6,173.9,819.4,174.2z"/>
	<path class="st6" d="M292.6,704.7c-2.1,0.8-4.1,1.7-6.3,2.2c-6.6,1.6-13.2,3-19.8,4.4c-4.1,0.9-8.1,1.8-12.2,2.6
		c-4.9,1-9.9,2-14.8,3c-0.8,0.2-1.7,0-2.6,0c2.8-0.7,5.6-1.6,8.4-2.2c8.1-1.7,16.3-3.2,24.5-5c7.1-1.5,14.1-3.4,21.1-5
		C291.5,704.6,292.1,704.7,292.6,704.7z"/>
	<path class="st3" d="M596.8,606.5c2.9-1.6,5.8-3.4,8.8-4.8c8.3-4.1,16.7-8.1,25-12.2c1.5-0.7,2.4-0.6,2.4,1.1
		c0,5.9-0.2,11.8-0.3,17.7c-0.2-0.9-0.6-1.8-0.6-2.8c-0.1-4.9,0-9.8,0-15.5c-2.7,1.3-4.9,2.3-7.1,3.3c-8.8,4.3-17.6,8.6-26.4,12.9
		C598.1,606.4,597.4,606.4,596.8,606.5z"/>
	<path class="st4" d="M270.3,723.4c2.3-0.8,4.5-1.7,6.8-2.3c6.4-1.6,12.8-3.1,19.2-4.6c6.7-1.6,13.3-3.1,20-4.7
		c1.2-0.3,2.5-0.5,3.7-0.7c-5.7,1.6-11.3,3.3-17,4.8c-6.5,1.7-13.1,3.4-19.7,4.9C279.1,721.9,274.7,722.6,270.3,723.4z"/>
	<path class="st6" d="M512.8,627.5c-1.1,0.8-2.2,1.7-3.5,2.3c-12.8,5.4-25.6,10.8-38.5,16.1c-1.7,0.7-3.6,1.1-5.3,1.6
		c2.3-1.1,4.5-2.3,6.8-3.3c13.3-5.6,26.6-11.2,39.9-16.7C512.4,627.4,512.6,627.5,512.8,627.5z"/>
	<path class="st3" d="M415.8,216.4c-0.2-0.9-0.6-1.8-0.6-2.7c0-16,0-32,0-47.9c0-0.9,0.4-1.8,0.6-2.8c0.1,0.7,0.3,1.4,0.3,2.1
		c0,16.4,0,32.8,0,49.3C416.1,215,415.9,215.7,415.8,216.4z"/>
	<path class="st6" d="M341.2,691.2c-1,0.5-1.9,1-2.9,1.3c-7.3,2.3-14.5,4.6-21.8,6.7c-5.7,1.6-11.4,3-17.2,4.4
		c-0.5,0.1-1.2-0.2-1.8-0.2c4.2-1.3,8.5-2.6,12.7-3.8c6.8-2,13.6-3.9,20.5-5.8C334.1,692.9,337.7,692.1,341.2,691.2z"/>
	<path class="st6" d="M589.4,592.2c-3.7,2-7.3,4.2-11.1,6c-7.7,3.7-15.4,7.4-23.1,10.9c-3.6,1.7-7.4,3.1-11.1,4.6
		c3.2-1.7,6.4-3.5,9.6-5c11-5.3,22.1-10.5,33.2-15.8C587.7,592.6,588.6,592.5,589.4,592.2z"/>
	<path class="st6" d="M386.5,676.7c-2.7,1.1-5.4,2.3-8.2,3.4c-4.3,1.6-8.6,3.1-13,4.5c-6.3,2-12.7,3.8-19.1,5.7
		c-0.2,0.1-0.5-0.2-0.7-0.3c1.6-0.7,3.1-1.5,4.7-2c11.8-3.8,23.5-7.6,35.3-11.4C385.8,676.5,386.2,676.6,386.5,676.7z"/>
	<path class="st3" d="M539,632.8c2.7-1.4,5.5-2.9,8.3-4.1c8.2-3.7,16.4-7.5,24.6-11.1c3.5-1.5,7-2.9,10.6-4.3c-3,1.6-6,3.3-9.1,4.7
		c-10.1,4.6-20.3,9.2-30.5,13.7C541.6,632.2,540.3,632.4,539,632.8z"/>
	<path class="st3" d="M742.2,271.2c-1.7,0.8-3.4,1.8-5.2,2.3c-9.8,3-19.7,5.9-29.6,8.8c-0.6,0.2-1.3,0.1-2,0.1
		c2.9-1.1,5.8-2.3,8.8-3.3c6-2,11.9-3.9,18-5.7C735.5,272.5,738.9,271.9,742.2,271.2z"/>
	<path class="st6" d="M667.6,551.5c-2.2,1.5-4.4,3-6.8,4.3c-7.8,4.3-15.6,8.5-23.5,12.7c-1.3,0.7-2.8,1-4.3,1.5c1.6-1,3.1-2,4.7-2.9
		c9-4.9,18-9.7,27.1-14.6C665.7,552.2,666.7,551.9,667.6,551.5z"/>
	<path class="st4" d="M84.7,660.6c-1.8,4.3-3.7,8.5-5.4,12.8c-1,2.4-1.8,4.8-2.8,7.1c1.2-4.4,2.1-8.9,3.8-13.1
		c1.8-4.6,4.2-8.8,6.4-13.2c0.2-0.4,0.5-0.8,0.7-1.2c0.7-1.1,1.4-2.2,2.1-3.3c0.2,0.2,0.5,0.5,0.7,0.7c-0.5,1-1,2.1-1.5,3.1
		c-0.2,0.4-0.4,0.9-0.7,1.3c-0.1,0.7-0.3,1.3-0.4,2c-0.2,0.4-0.5,0.8-0.7,1.2c-0.1,0.3-0.2,0.6-0.4,0.9c-0.2,0-0.4,0.1-0.7,0.1
		C85.5,659.5,85.1,660.1,84.7,660.6C84.7,660.6,84.7,660.6,84.7,660.6z"/>
	<path class="st3" d="M433.2,675.4c1.2-0.7,2.3-1.7,3.5-2.2c6.7-2.6,13.4-5.1,20.2-7.5c3.6-1.3,7.3-2.4,11-3.6
		c-2.3,1.1-4.5,2.4-6.9,3.3c-9.1,3.4-18.2,6.8-27.3,10.1C433.6,675.5,433.4,675.4,433.2,675.4z"/>
	<path class="st6" d="M464.7,647.6c-3.1,1.6-6.2,3.4-9.5,4.7c-6.4,2.6-12.8,4.9-19.3,7.3c-1.7,0.6-3.5,0.9-5.2,1.3
		c1.4-0.7,2.7-1.5,4.2-2.1c9.7-3.8,19.5-7.6,29.3-11.3C464.3,647.4,464.5,647.5,464.7,647.6z"/>
	<path class="st3" d="M685.5,920.2c0-12.1-0.1-24.2-0.1-36.4c0-0.5,0.2-1.1,0.2-1.6c0.2,0.7,0.7,1.4,0.7,2.2
		c0.1,11.2,0.1,22.4,0,33.6C686.3,918.8,685.8,919.5,685.5,920.2z"/>
	<path class="st3" d="M397.2,687.8c1.6-0.7,3.1-1.6,4.7-2.2c8.7-3,17.3-6,26-9c0.4-0.1,0.9,0,1.3-0.1c-2.3,1.1-4.6,2.3-7,3.2
		c-7.6,2.7-15.3,5.3-23,7.9C398.6,687.8,397.9,687.7,397.2,687.8z"/>
	<path class="st6" d="M424.2,663.2c-1.8,0.9-3.5,2-5.3,2.7c-7.5,2.8-15.1,5.4-22.6,8.1c-0.9,0.3-1.8,0.3-2.8,0.4
		c1.6-0.7,3.1-1.6,4.7-2.2c8.3-3.1,16.6-6.1,25-9C423.5,663,423.9,663.1,424.2,663.2z"/>
	<path class="st4" d="M205.4,871c0.2,0.7,0.7,1.4,0.7,2.1c0,10.1,0.1,20.3,0,30.4c0,0.7-0.4,1.4-0.7,2.1c-0.1-2-0.3-3.9-0.3-5.9
		c0-8.6,0-17.3,0-25.9C205.1,873,205.3,872,205.4,871z"/>
	<path class="st3" d="M972.6,248.2c-3.2-0.7-6.4-1.5-9.6-2.2c-5.5-1.1-10.9-2.1-16.4-3.2c-0.6-0.1-1.1-0.4-1.6-0.7
		c3.4,0.3,6.9,0.2,10.2,0.9c5.5,1.1,10.8,2.7,16.2,4.2C971.9,247.4,972.3,247.9,972.6,248.2z"/>
	<path class="st6" d="M728.7,516.2c-2.3,1.6-4.6,3.2-7,4.7c-4,2.5-8,4.9-12.1,7.2c-1,0.6-2.1,0.8-3.2,1.3c3.3-2.1,6.7-4.3,10.1-6.4
		c3.3-2.1,6.7-4.1,10.1-6.1C727.2,516.6,728,516.4,728.7,516.2z"/>
	<path class="st3" d="M669.6,570.1c2.3-1.4,4.7-2.8,7-4.1c4.2-2.3,8.4-4.6,12.6-6.8c0.8-0.4,1.8-0.6,2.7-1c-2.8,1.7-5.6,3.4-8.4,5
		c-4.3,2.4-8.6,4.6-13,6.9C670.4,570.3,670,570.1,669.6,570.1z"/>
	<path class="st3" d="M498.5,778.6c-0.8,0.4-1.6,1.1-2.3,1.1c-7.3,0.1-14.5,0.1-21.8,0.1c0.8-0.3,1.6-0.9,2.5-0.9
		c6.2-0.1,12.5,0,18.7-0.1C496.5,778.9,497.5,778.7,498.5,778.6z"/>
	<path class="st4" d="M324.8,710c1.4-0.7,2.8-1.7,4.3-2.2c4.5-1.3,9.1-2.3,13.6-3.4c0.1,0,0.3,0.1,0.5,0.2c-1.2,0.6-2.4,1.4-3.7,1.7
		C334.6,707.6,329.7,708.8,324.8,710z"/>
	<path class="st3" d="M910.9,265.8c1.6,0.3,3.2,0.3,4.6,0.8c4.5,1.7,8.9,3.6,13.3,5.5c0.5,0.2,0.8,0.9,1.2,1.3
		c-3.2-1.3-6.4-2.7-9.7-3.9c-2.5-0.9-5-1.7-7.5-2.6C912.2,266.7,911.5,266.2,910.9,265.8z"/>
	<path class="st7" d="M90.2,650.4c-0.2-0.2-0.5-0.5-0.7-0.7c2.1-4.1,4.1-8.4,7.8-11.5c0.1,0.4,0.3,0.6,0.2,0.7
		c-2.1,3.7-4.3,7.3-6.5,11C90.9,650.1,90.5,650.2,90.2,650.4z"/>
	<path class="st3" d="M991,258.4c-1.8-1.1-3.6-2.3-5.4-3.3c-3.3-1.8-6.6-3.4-9.9-5.1c-0.9-0.5-1.8-1.1-2.6-1.6
		c3.8,1.5,7.7,2.7,11.2,4.5C986.7,254.3,988.8,256.6,991,258.4z"/>
	<path class="st6" d="M534.4,618.1c-2.3,1.2-4.5,2.7-6.9,3.7c-3.9,1.7-7.8,3-11.8,4.5c4.2-2,8.3-4,12.6-5.9
		C530.2,619.6,532.3,618.9,534.4,618.1z"/>
	<path class="st3" d="M946.3,316.3c-1.4,4.5-2.8,9-4.4,13.4c-0.6,1.8-1.8,3.4-2.7,5c1-2.6,2-5.1,2.9-7.7c1-2.8,1.9-5.7,2.9-8.5
		C945.4,317.8,945.9,317,946.3,316.3z"/>
	<path class="st3" d="M561.8,338.8c1.5-0.8,3-1.7,4.6-2.3c4.5-1.7,9-3.2,13.4-4.8c-2,1-4,2.1-6.1,2.9
		C569.8,336.1,565.8,337.4,561.8,338.8z"/>
	<path class="st3" d="M927.7,240.9c-6.3,0-12.7,0-19,0.1c1.8-0.3,3.6-1,5.4-1c4.1,0,8.2,0.2,12.3,0.3
		C926.8,240.4,927.3,240.7,927.7,240.9z"/>
	<path class="st3" d="M939.8,281.6c3.9,2.6,5.4,6.7,6.8,10.8c0.6,1.8,0.6,3.8,0.9,5.7c-0.6-1.8-0.9-3.6-1.7-5.2
		c-1.6-3.3-3.5-6.4-5.2-9.6C940.2,282.7,940,282.2,939.8,281.6z"/>
	<path class="st3" d="M650.3,489.9c5.5-3.2,10.9-6.3,16.4-9.5c-1.7,1.2-3.4,2.5-5.1,3.5c-3.2,2-6.4,3.8-9.7,5.7
		C651.4,489.9,650.8,489.8,650.3,489.9z"/>
	<path class="st3" d="M939,335.1c-1.8,3.3-3.5,6.8-5.4,10c-1.3,2.2-3.1,4.2-4.6,6.4c0.4-0.9,0.7-1.8,1.2-2.6c2.3-4,4.7-7.9,7.1-11.9
		C937.7,336.3,938.4,335.7,939,335.1z"/>
	<path class="st3" d="M749.5,426.1c1.7-1.4,3.3-2.9,5-4.2c3.2-2.3,6.5-4.5,9.8-6.8c-1.6,1.4-3.2,3-5,4.3
		C756.2,421.8,752.8,423.9,749.5,426.1z"/>
	<path class="st4" d="M82,688.7c-1.6-5.4-1.9-10.8,0-16.2c0,3.4-0.1,6.8-0.1,10.2C81.9,684.7,82,686.7,82,688.7z"/>
	<path class="st3" d="M586.8,325.6c-2.6,1.3-5.1,2.7-7.8,3.8c-2.8,1.1-5.7,2-8.6,2.9c1.7-0.9,3.2-2,5-2.6
		C579.1,328.2,583,327,586.8,325.6z"/>
	<path class="st6" d="M632,570.5c-2,1.3-3.8,2.8-5.9,3.8c-3.1,1.5-6.3,2.8-9.4,4.1C621.8,575.8,626.9,573.1,632,570.5z"/>
	<path class="st6" d="M682.8,543.2c-5,2.7-9.9,5.5-14.9,8.2C672.9,548.6,677.8,545.9,682.8,543.2z"/>
	<path class="st3" d="M692.9,557.8c2.2-1.4,4.3-3,6.6-4.2c2.7-1.5,5.5-2.7,8.3-4C702.8,552.3,697.8,555.1,692.9,557.8z"/>
	<path class="st6" d="M616.4,578.7c-3.8,2.1-7.6,4.2-11.4,6.3c-0.9,0.5-1.9,0.7-2.9,1C606.9,583.5,611.6,581.1,616.4,578.7z"/>
	<path class="st3" d="M636.2,498c4.6-2.6,9.1-5.2,13.7-7.8c-3.4,2.1-6.7,4.2-10.1,6.3C638.7,497.1,637.4,497.5,636.2,498z"/>
	<path class="st3" d="M583.3,612.8c4.4-2,8.8-4.1,13.2-6.1C592.1,608.8,587.7,610.8,583.3,612.8z"/>
	<path class="st3" d="M580.7,331.4c1.7-0.8,3.3-1.8,5.1-2.5c2.6-1,5.2-1.7,7.8-2.5c-1.8,0.9-3.6,1.8-5.5,2.5
		C585.7,329.9,583.2,330.6,580.7,331.4z"/>
	<path class="st6" d="M706,529.7c-4.1,2.4-8.1,4.7-12.2,7.1C697.9,534.4,701.9,532,706,529.7z"/>
	<path class="st6" d="M805.8,465.2c-3.5,3.1-6.7,6.6-11.4,8C798.2,470.6,802,467.9,805.8,465.2z"/>
	<path class="st3" d="M957,370.3c0-0.3,0-0.6,0.1-0.8c3.1-3.2,6.2-6.5,9.3-9.7c-1.2,1.6-2.2,3.4-3.5,4.8
		C961.1,366.7,959,368.5,957,370.3z"/>
	<path class="st3" d="M840.2,467.7c3.8-2.8,7.7-5.6,11.5-8.4c-1.6,1.4-3,2.9-4.7,4C844.8,465,842.5,466.3,840.2,467.7z"/>
	<path class="st6" d="M750.3,502.6c-3.9,2.4-7.7,4.8-11.6,7.2C742.5,507.5,746.4,505,750.3,502.6z"/>
	<path class="st3" d="M899.7,241.2c-4.2,0.3-8.4,0.6-12.6,0.9C891.3,241.8,895.5,241.5,899.7,241.2z"/>
	<path class="st3" d="M601.8,319.5c-4,1.6-8,3.2-12,4.8C593.8,322.7,597.8,321.1,601.8,319.5z"/>
	<path class="st3" d="M717.8,544.1c4-2.3,8-4.6,11.9-6.9C725.8,539.4,721.8,541.7,717.8,544.1z"/>
	<path class="st3" d="M568.9,332.9c-4,1.6-7.9,3.3-11.9,4.9c3-1.4,6-2.8,9-4.1C566.9,333.3,567.9,333.2,568.9,332.9z"/>
	<path class="st6" d="M792.8,474.3c-0.7,0.7-1.3,1.6-2.1,2.2c-2.9,1.9-5.8,3.6-8.7,5.4C785.6,479.4,789.2,476.9,792.8,474.3z"/>
	<path class="st3" d="M944.1,242.1c-3.6-0.4-7.3-0.7-10.9-1.1c2.9-0.1,5.8-0.2,8.7-0.1C942.6,241,943.4,241.7,944.1,242.1z"/>
	<path class="st6" d="M738.3,510.1c-3.1,1.9-6.2,3.9-9.3,5.8C732.1,513.9,735.2,512,738.3,510.1z"/>
	<path class="st6" d="M601.3,586.4c-3.2,1.6-6.4,3.1-9.7,4.7C594.9,589.5,598.1,587.9,601.3,586.4z"/>
	<path class="st3" d="M708,549.3c3.1-1.7,6.3-3.3,9.4-5C714.3,546,711.2,547.7,708,549.3z"/>
	<path class="st3" d="M941.7,385.8c2.6-2.5,5.1-4.9,7.7-7.4C946.8,380.8,944.3,383.3,941.7,385.8z"/>
	<path class="st3" d="M667,480.2c3.1-1.9,6.3-3.8,9.4-5.6C673.2,476.4,670.1,478.3,667,480.2z"/>
	<path class="st3" d="M800.8,494c3.1-2,6.3-4,9.4-6C807,490,803.9,492,800.8,494z"/>
	<path class="st6" d="M781.6,482.2c-2.9,1.9-5.8,3.8-8.8,5.7C775.7,486,778.7,484.1,781.6,482.2z"/>
	<path class="st6" d="M693.1,537.2c-3,1.7-5.9,3.4-8.9,5.1C687.1,540.6,690.1,538.9,693.1,537.2z"/>
	<path class="st6" d="M830.2,447.2c-2.6,2-5.2,4-7.8,6C825,451.2,827.6,449.2,830.2,447.2z"/>
	<path class="st3" d="M931,274.2c2.6,2.1,5.1,4.2,7.7,6.2C936.1,278.4,933.5,276.3,931,274.2z"/>
	<path class="st6" d="M771.3,489.1c-2.6,1.7-5.2,3.4-7.9,5C766.1,492.5,768.7,490.8,771.3,489.1z"/>
	<path class="st6" d="M543,614.1c-2.8,1.3-5.5,2.5-8.3,3.8C537.5,616.6,540.3,615.3,543,614.1z"/>
	<path class="st6" d="M839.3,440.1c-2.2,1.7-4.5,3.4-6.7,5C834.9,443.5,837.1,441.8,839.3,440.1z"/>
	<path class="st3" d="M928.8,351.8c-1.7,2.4-3.5,4.8-5.2,7.2C925.3,356.6,927,354.2,928.8,351.8z"/>
	<path class="st3" d="M769,411.6c2.2-1.7,4.4-3.4,6.7-5.1C773.4,408.2,771.2,409.9,769,411.6z"/>
	<path class="st3" d="M861.2,452.6c2.3-1.7,4.7-3.5,7-5.2C865.9,449.1,863.6,450.8,861.2,452.6z"/>
	<path class="st3" d="M901.4,384.9c-2,2-3.9,4-5.9,6C897.4,388.8,899.4,386.9,901.4,384.9z"/>
	<path class="st3" d="M733.9,534.7c2.4-1.4,4.8-2.7,7.2-4.1C738.7,532,736.3,533.3,733.9,534.7z"/>
	<path class="st3" d="M784.6,399.2c2.1-1.7,4.1-3.4,6.2-5.1C788.7,395.8,786.7,397.5,784.6,399.2z"/>
	<path class="st6" d="M873.3,412c-2,1.7-4.1,3.4-6.1,5.1C869.3,415.4,871.3,413.7,873.3,412z"/>
	<path class="st3" d="M947.6,299c0,2.6,0,5.1,0,7.7C947.5,304.1,947.6,301.6,947.6,299z"/>
	<path class="st3" d="M888.8,431.6c1.8-1.4,3.7-2.7,5.5-4.1C892.5,428.9,890.6,430.2,888.8,431.6z"/>
	<path class="st6" d="M857.7,425.5c-1.8,1.4-3.5,2.8-5.3,4.2C854.1,428.3,855.9,426.9,857.7,425.5z"/>
	<path class="st6" d="M811.8,461.1c-1.9,1.3-3.8,2.7-5.7,4C808,463.7,809.9,462.4,811.8,461.1z"/>
	<path class="st3" d="M745.2,528.2c2-1.2,4.1-2.3,6.1-3.5C749.3,525.9,747.3,527,745.2,528.2z"/>
	<path class="st3" d="M726.5,283.5c2.2-0.7,4.4-1.4,6.7-2C730.9,282.1,728.7,282.8,726.5,283.5z"/>
	<path class="st6" d="M820.4,454.6c-1.9,1.3-3.7,2.7-5.6,4C816.7,457.3,818.6,456,820.4,454.6z"/>
	<path class="st6" d="M221.9,719.2c-1.7,1.9-3.9,1.4-6,0.9C217.9,719.9,219.9,719.6,221.9,719.2z"/>
	<path class="st3" d="M883.4,402.6c-1.6,1.4-3.3,2.8-4.9,4.3C880.2,405.4,881.8,404,883.4,402.6z"/>
	<path class="st3" d="M967.2,359c1.4-1.7,2.7-3.3,4.1-5C970,355.6,968.6,357.3,967.2,359z"/>
	<path class="st3" d="M823.5,479.1c1.7-1.2,3.4-2.3,5.1-3.5C826.9,476.8,825.2,477.9,823.5,479.1z"/>
	<path class="st6" d="M758.9,497.2c-1.7,1-3.3,2-5,3.1C755.6,499.3,757.2,498.2,758.9,497.2z"/>
	<path class="st6" d="M228.9,718.1c-1.8,0.3-3.6,0.6-5.4,1C225.3,718.8,227.1,718.5,228.9,718.1z"/>
	<path class="st3" d="M925,401.4c1.5-1.4,3-2.7,4.5-4.1C928,398.7,926.5,400.1,925,401.4z"/>
	<path class="st3" d="M889,397.4c-1.5,1.4-3,2.7-4.5,4.1C886,400.1,887.5,398.8,889,397.4z"/>
	<path class="st3" d="M893.3,393c-1.4,1.4-2.8,2.9-4.2,4.3C890.5,395.9,891.9,394.4,893.3,393z"/>
	<path class="st3" d="M930.9,396c1.5-1.4,3-2.7,4.5-4.1C933.9,393.3,932.4,394.6,930.9,396z"/>
	<path class="st6" d="M851.7,430.3c-1.5,1.2-3,2.4-4.5,3.5C848.7,432.7,850.2,431.5,851.7,430.3z"/>
	<path class="st3" d="M616.4,843.4c-1.8,0-3.6,0-5.4,0C612.8,843.4,614.6,843.4,616.4,843.4z"/>
	<path class="st4" d="M75.7,685.4c1.4,1.8,1.4,3.7,0,5.5C75.7,689,75.7,687.2,75.7,685.4z"/>
	<path class="st6" d="M235.4,717c-1.6,0.3-3.3,0.6-4.9,1C232.1,717.7,233.8,717.4,235.4,717z"/>
	<path class="st3" d="M758.7,520.2c1.7-1,3.4-2,5-3C762.1,518.2,760.4,519.2,758.7,520.2z"/>
	<path class="st6" d="M864.2,420c-1.5,1.2-3,2.4-4.4,3.6C861.2,422.4,862.7,421.2,864.2,420z"/>
	<path class="st3" d="M794.3,391.1c1.3-1.2,2.7-2.3,4-3.5C797,388.8,795.7,389.9,794.3,391.1z"/>
	<path class="st4" d="M84.2,695.8c-0.7-1.9-1.4-3.8-2.1-5.7C82.8,692,83.5,693.9,84.2,695.8z"/>
	<path class="st3" d="M915.2,410c1.3-1.2,2.7-2.3,4-3.5C917.9,407.7,916.6,408.8,915.2,410z"/>
	<path class="st3" d="M980.9,341.8c0.9-1.4,1.9-2.7,2.8-4.1C982.8,339.1,981.8,340.4,980.9,341.8z"/>
	<path class="st3" d="M813.8,485.6c1.5-1,3-2,4.5-3C816.8,483.6,815.3,484.6,813.8,485.6z"/>
	<path class="st6" d="M391.9,674.5c-1.5,0.6-2.9,1.3-4.4,1.9C389,675.8,390.5,675.2,391.9,674.5z"/>
	<path class="st3" d="M915.3,369.1c-1,1.3-2,2.6-3.1,3.9C913.2,371.7,914.3,370.4,915.3,369.1z"/>
	<path class="st3" d="M894.3,427.5c1.3-1.1,2.5-2.2,3.8-3.2C896.9,425.3,895.6,426.4,894.3,427.5z"/>
	<path class="st3" d="M971.6,353.6c1-1.2,1.9-2.3,2.9-3.5C973.5,351.3,972.6,352.5,971.6,353.6z"/>
	<path class="st3" d="M805.2,381.4c1.1-1,2.3-2,3.4-3C807.4,379.4,806.3,380.4,805.2,381.4z"/>
	<path class="st3" d="M722.1,284.6c1.1-0.3,2.3-0.6,3.4-1C724.4,283.9,723.3,284.3,722.1,284.6z"/>
	<path class="st3" d="M920.7,362.6c-0.8,1.1-1.7,2.3-2.5,3.4C919,364.9,919.8,363.7,920.7,362.6z"/>
	<path class="st3" d="M878.5,439.6c1.1-0.8,2.2-1.7,3.3-2.5C880.7,437.9,879.6,438.8,878.5,439.6z"/>
	<path class="st3" d="M881.8,437.1c1.1-0.8,2.3-1.7,3.4-2.5C884.1,435.4,883,436.2,881.8,437.1z"/>
	<path class="st3" d="M904.6,418.9c1.1-0.9,2.2-1.8,3.3-2.7C906.8,417.1,905.7,418,904.6,418.9z"/>
	<path class="st6" d="M867.2,417.1c-1,1-2,1.9-3,2.9C865.2,419,866.2,418.1,867.2,417.1z"/>
	<path class="st3" d="M764.1,516.9c0.6-0.6,1.2-1.2,1.9-1.7c0.2-0.1,0.8,0.6,1.2,0.9C766.2,516.4,765.2,516.6,764.1,516.9z"/>
	<path class="st3" d="M994.2,261.2c-0.9-0.8-1.9-1.7-2.8-2.5C992.3,259.5,993.3,260.3,994.2,261.2z"/>
	<path class="st4" d="M265.4,724.5c0.9-0.3,1.8-0.6,2.8-0.9C267.3,723.9,266.4,724.2,265.4,724.5z"/>
	<path class="st3" d="M921.2,404.7c1-0.8,1.9-1.6,2.9-2.5C923.1,403,922.2,403.8,921.2,404.7z"/>
	<path class="st3" d="M908.2,415.9c1-0.8,1.9-1.7,2.9-2.5C910.1,414.3,909.2,415.1,908.2,415.9z"/>
	<path class="st3" d="M751.7,524.4c1.1-0.7,2.2-1.4,3.2-2.1C753.9,523,752.8,523.7,751.7,524.4z"/>
	<path class="st3" d="M852.7,458.6c1-0.6,1.9-1.3,2.9-1.9C854.6,457.3,853.6,458,852.7,458.6z"/>
	<path class="st4" d="M321,711c0.9-0.3,1.8-0.6,2.8-0.9C322.9,710.4,322,710.7,321,711z"/>
	<path class="st4" d="M344.2,704.4c0.9-0.3,1.8-0.6,2.7-0.9C346.1,703.9,345.2,704.2,344.2,704.4z"/>
	<path class="st6" d="M296.4,703.6c-0.9,0.3-1.8,0.6-2.7,0.9C294.6,704.2,295.5,703.9,296.4,703.6z"/>
	<path class="st4" d="M84.3,663.4c0.1-0.9,0.3-1.9,0.4-2.8c0,0,0,0,0,0c0.3-0.2,0.6-0.4,0.8-0.6c0.1,0,0.2,0,0.4,0
		C85.4,661.2,84.8,662.3,84.3,663.4z"/>
	<path class="st3" d="M835.4,471c1-0.6,1.9-1.3,2.9-1.9C837.3,469.8,836.3,470.4,835.4,471z"/>
	<path class="st3" d="M947.4,312.5c-0.3,0.9-0.6,1.9-0.9,2.8C946.8,314.4,947.1,313.5,947.4,312.5z"/>
	<path class="st3" d="M855.9,456.5c0.9-0.7,1.9-1.3,2.8-2C857.8,455.2,856.8,455.8,855.9,456.5z"/>
	<path class="st3" d="M828.9,475.3c1-0.6,1.9-1.3,2.9-1.9C830.8,474.1,829.9,474.7,828.9,475.3z"/>
	<path class="st3" d="M755.4,522.1c1-0.6,2-1.1,3-1.7C757.4,521,756.4,521.5,755.4,522.1z"/>
	<path class="st3" d="M741.5,530.4c1-0.6,2-1.1,3-1.7C743.5,529.2,742.5,529.8,741.5,530.4z"/>
	<path class="st3" d="M730.6,536.7c1-0.6,2-1.1,3-1.7C732.6,535.5,731.6,536.1,730.6,536.7z"/>
	<path class="st3" d="M975.7,348.5c0.7-0.9,1.4-1.8,2.1-2.7C977.1,346.7,976.4,347.6,975.7,348.5z"/>
	<path class="st6" d="M843.6,436.8c-0.9,0.7-1.8,1.3-2.7,2C841.9,438.2,842.7,437.5,843.6,436.8z"/>
	<path class="st3" d="M912.2,373c-0.7,0.7-1.4,1.4-2.1,2.1C910.8,374.5,911.5,373.8,912.2,373z"/>
	<path class="st4" d="M83.2,667.8c0.3-0.9,0.6-1.9,0.9-2.8C83.8,665.9,83.5,666.8,83.2,667.8z"/>
	<path class="st3" d="M912,412.6c0.8-0.6,1.6-1.2,2.4-1.8C913.6,411.4,912.8,412,912,412.6z"/>
	<path class="st3" d="M779.2,403.6c0.8-0.6,1.6-1.3,2.3-1.9C780.8,402.3,780,402.9,779.2,403.6z"/>
	<path class="st3" d="M791.1,393.8c0.8-0.6,1.6-1.3,2.3-1.9C792.7,392.5,791.9,393.2,791.1,393.8z"/>
	<path class="st4" d="M76.5,681.5c-0.2,1-0.5,2-0.7,3C76,683.4,76.2,682.4,76.5,681.5z"/>
	<path class="st3" d="M938.4,389c0.7-0.7,1.4-1.4,2.1-2.1C939.9,387.6,939.2,388.3,938.4,389z"/>
	<path class="st3" d="M800.3,385.8c0.8-0.6,1.6-1.3,2.3-1.9C801.8,384.5,801.1,385.1,800.3,385.8z"/>
	<path class="st3" d="M923.3,359.4c-0.6,0.8-1.3,1.6-1.9,2.4C922.1,360.9,922.7,360.1,923.3,359.4z"/>
	<path class="st3" d="M908.3,377.2c-0.6,0.8-1.3,1.5-1.9,2.3C907,378.8,907.6,378,908.3,377.2z"/>
	<path class="st3" d="M949.4,378.4c0.7-0.7,1.4-1.4,2.2-2.1C950.8,376.9,950.1,377.6,949.4,378.4z"/>
	<path class="st3" d="M874.2,442.9c0.8-0.6,1.6-1.2,2.4-1.9C875.8,441.7,875,442.3,874.2,442.9z"/>
	<path class="st3" d="M871.5,444.9c0.8-0.6,1.6-1.2,2.4-1.7C873.1,443.7,872.3,444.3,871.5,444.9z"/>
	<path class="st6" d="M344.4,690.1c-0.7,0.3-1.5,0.6-2.2,1C343,690.8,343.7,690.4,344.4,690.1z"/>
	<path class="st3" d="M605,318.3c-0.8,0.3-1.5,0.6-2.3,1C603.5,319,604.2,318.7,605,318.3z"/>
	<path class="st4" d="M348,703.3c0.8-0.3,1.6-0.7,2.5-1C349.7,702.7,348.9,703,348,703.3z"/>
	<path class="st3" d="M430.2,676.3c0.7-0.3,1.4-0.6,2.1-0.8C431.6,675.8,430.9,676.1,430.2,676.3z"/>
	<path class="st3" d="M704.5,282.6c-0.8,0.3-1.7,0.7-2.5,1C702.8,283.3,703.6,282.9,704.5,282.6z"/>
	<path class="st3" d="M906.9,241c-0.8,0-1.7,0-2.5,0C905.2,241,906.1,241,906.9,241z"/>
	<path class="st4" d="M82.1,671.5c0.3-0.8,0.5-1.5,0.8-2.3C82.7,670,82.4,670.8,82.1,671.5z"/>
	<path class="st3" d="M819.7,481.7c0.6-0.4,1.2-0.8,1.8-1.3C820.9,480.8,820.3,481.3,819.7,481.7z"/>
	<path class="st3" d="M902.8,383.1c-0.5,0.6-1,1.2-1.5,1.7C901.9,384.3,902.4,383.7,902.8,383.1z"/>
	<path class="st6" d="M846.3,434.6c-0.6,0.5-1.2,1-1.8,1.4C845.1,435.5,845.7,435.1,846.3,434.6z"/>
	<path class="st3" d="M978.6,344.9c0.5-0.6,1-1.2,1.4-1.8C979.5,343.8,979,344.3,978.6,344.9z"/>
	<path class="st3" d="M902.8,420.3c0.6-0.5,1.2-0.9,1.8-1.4C904,419.3,903.4,419.8,902.8,420.3z"/>
	<path class="st3" d="M886.1,433.8c0.6-0.5,1.2-0.9,1.8-1.4C887.3,432.9,886.7,433.3,886.1,433.8z"/>
	<path class="st3" d="M776.6,405.8c0.6-0.5,1.2-0.9,1.8-1.4C777.8,404.8,777.2,405.3,776.6,405.8z"/>
	<path class="st6" d="M429.7,661c-0.6,0.3-1.3,0.7-1.9,1C428.4,661.7,429.1,661.4,429.7,661z"/>
	<path class="st6" d="M426.9,662.1c-0.6,0.3-1.2,0.6-1.9,1C425.7,662.8,426.3,662.5,426.9,662.1z"/>
	<path class="st3" d="M766.3,413.7c0.6-0.4,1.2-0.9,1.8-1.3C767.5,412.8,766.9,413.3,766.3,413.7z"/>
	<path class="st6" d="M761.6,495.3c-0.6,0.4-1.2,0.8-1.8,1.2C760.4,496.1,761,495.7,761.6,495.3z"/>
	<path class="st3" d="M781.9,401.4c0.6-0.4,1.2-0.9,1.8-1.3C783.1,400.5,782.5,400.9,781.9,401.4z"/>
	<path class="st6" d="M591.6,591.1c-0.6,0.3-1.2,0.6-1.8,0.9C590.4,591.7,591,591.4,591.6,591.1z"/>
	<path class="st3" d="M556.6,338.1c-0.6,0.2-1.3,0.5-1.9,0.7C555.3,338.5,555.9,338.3,556.6,338.1z"/>
	<path class="st3" d="M589.5,324.5c-0.6,0.2-1.2,0.5-1.9,0.7C588.2,325,588.8,324.7,589.5,324.5z"/>
	<path class="st3" d="M607.9,317.1c-0.6,0.3-1.1,0.6-1.7,0.9C606.7,317.7,607.3,317.4,607.9,317.1z"/>
	<path class="st3" d="M811.8,486.9c0.6-0.3,1.1-0.7,1.7-1C812.9,486.2,812.3,486.5,811.8,486.9z"/>
	<path class="st7" d="M85.9,659c0.2,0,0.4-0.1,0.7-0.1c-0.2,0.4-0.4,0.8-0.6,1.2c-0.1,0-0.2,0-0.4,0C85.7,659.7,85.8,659.3,85.9,659
		z"/>
	<path class="st7" d="M86.9,658c0.2-0.4,0.5-0.8,0.7-1.2C87.4,657.2,87.2,657.6,86.9,658z"/>
	<path class="st7" d="M88.1,654.8c0.2-0.4,0.4-0.9,0.7-1.3C88.5,654,88.3,654.4,88.1,654.8z"/>
	<path class="st7" d="M87.4,653c-0.2,0.4-0.5,0.8-0.7,1.2C86.9,653.8,87.2,653.4,87.4,653z"/>
	<path class="st6" d="M514.9,626.6c-0.3,0.2-0.7,0.5-1,0.7C514.2,627,514.5,626.8,514.9,626.6z"/>
	<path class="st3" d="M767.2,556.8c-0.3,0.3-0.7,0.7-1,1C766.5,557.5,766.9,557.1,767.2,556.8z"/>
	<path class="st6" d="M751.9,501.6c-0.4,0.3-0.9,0.5-1.3,0.8C751,502.1,751.4,501.8,751.9,501.6z"/>
	<path class="st6" d="M753.5,500.6c-0.4,0.3-0.8,0.5-1.3,0.8C752.7,501.1,753.1,500.8,753.5,500.6z"/>
	<path class="st6" d="M772.8,487.8c-0.4,0.3-0.8,0.7-1.2,1C772,488.5,772.4,488.2,772.8,487.8z"/>
	<path class="st3" d="M810.5,487.7c0.4-0.3,0.8-0.6,1.2-0.9C811.4,487.2,810.9,487.4,810.5,487.7z"/>
	<path class="st6" d="M794.4,473.3c-0.4,0.3-0.9,0.6-1.3,0.9C793.5,473.9,794,473.6,794.4,473.3z"/>
	<path class="st3" d="M832.1,473.1c0.4-0.3,0.9-0.5,1.3-0.8C833,472.6,832.6,472.9,832.1,473.1z"/>
	<path class="st3" d="M833.7,472.1c0.4-0.3,0.9-0.5,1.3-0.8C834.6,471.5,834.2,471.8,833.7,472.1z"/>
	<path class="st3" d="M930.6,241c-0.4,0-0.8,0-1.2-0.1C929.8,240.9,930.2,241,930.6,241z"/>
	<path class="st6" d="M814.5,459c-0.4,0.3-0.8,0.6-1.2,0.8C813.7,459.5,814.1,459.2,814.5,459z"/>
	<path class="st3" d="M868.3,447.3c0.4-0.3,0.8-0.6,1.2-0.9C869.1,446.7,868.7,447,868.3,447.3z"/>
	<path class="st3" d="M876.9,440.8c0.4-0.3,0.8-0.6,1.2-0.9C877.7,440.2,877.3,440.5,876.9,440.8z"/>
	<path class="st3" d="M748,427.3c0.4-0.3,0.8-0.6,1.2-0.9C748.8,426.7,748.4,427,748,427.3z"/>
	<path class="st3" d="M898.1,424.2c0.4-0.3,0.8-0.6,1.2-1C898.9,423.6,898.5,423.9,898.1,424.2z"/>
	<path class="st3" d="M899.6,423c0.4-0.3,0.8-0.6,1.3-0.8C900.4,422.4,900,422.7,899.6,423z"/>
	<path class="st3" d="M764.7,414.9c0.4-0.3,0.8-0.6,1.2-0.9C765.5,414.3,765.1,414.6,764.7,414.9z"/>
	<path class="st3" d="M894.4,392c-0.4,0.3-0.7,0.7-1.1,1C893.7,392.6,894,392.3,894.4,392z"/>
	<path class="st3" d="M799.2,386.8c0.4-0.3,0.7-0.7,1.1-1C799.9,386.1,799.5,386.5,799.2,386.8z"/>
	<path class="st3" d="M803.8,382.8c0.4-0.4,0.7-0.7,1.1-1.1C804.5,382.1,804.1,382.4,803.8,382.8z"/>
	<path class="st6" d="M813.3,459.8c-0.4,0.3-0.8,0.7-1.2,1C812.5,460.5,812.9,460.1,813.3,459.8z"/>
	<path class="st3" d="M594.8,326.1c0.4-0.2,0.8-0.3,1.2-0.5C595.6,325.7,595.2,325.9,594.8,326.1z"/>
	<path class="st3" d="M918.1,366c-0.3,0.4-0.7,0.7-1,1.1C917.5,366.8,917.8,366.4,918.1,366z"/>
	<path class="st3" d="M809.7,377.3c0.4-0.3,0.7-0.7,1.1-1C810.4,376.7,810,377,809.7,377.3z"/>
	<path class="st3" d="M951.5,376.2c0.3-0.4,0.6-0.8,0.9-1.2C952.1,375.4,951.8,375.8,951.5,376.2z"/>
	<path class="st3" d="M685.6,844.1c-0.2-0.2-0.5-0.5-0.7-0.7c0.3,0,0.6,0,0.9,0C685.7,843.7,685.7,843.9,685.6,844.1z"/>
	<path class="st3" d="M910,375.2c-0.3,0.4-0.7,0.7-1,1.1C909.4,375.9,909.7,375.6,910,375.2z"/>
	<path class="st3" d="M954.1,373.3c0.4-0.3,0.7-0.7,1.1-1C954.8,372.7,954.5,373,954.1,373.3z"/>
	<path class="st3" d="M955.2,372.3c0.3-0.4,0.7-0.7,1-1.1C955.9,371.6,955.6,371.9,955.2,372.3z"/>
	<path class="st0" d="M471.4,377c0.4,0,0.7,0,1.1,0c0,0.1,0,0.4,0,0.4c-0.3,0.1-0.7,0.1-1.1,0.2C471.4,377.4,471.4,377.2,471.4,377z
		"/>
	<path class="st0" d="M461.2,382.6c-0.3,0.2-0.6,0.4-0.9,0.6c-0.1-0.1-0.1-0.2-0.2-0.3c0.3-0.2,0.6-0.4,0.9-0.6
		C461.1,382.3,461.2,382.5,461.2,382.6z"/>
	<path class="st0" d="M463.4,381.5c-0.3,0.2-0.7,0.4-1,0.5c-0.1-0.1-0.1-0.3-0.2-0.4c0.3-0.2,0.7-0.4,1-0.5
		C463.3,381.2,463.4,381.4,463.4,381.5z"/>
	<path class="st0" d="M469.4,377.9c0.3,0,0.6,0.1,0.9,0.1c0,0,0,0.2,0,0.2c-0.3,0-0.6,0.1-0.8,0.1
		C469.4,378.2,469.4,378,469.4,377.9z"/>
	<path class="st0" d="M468,379.3c-0.2,0-0.5,0-0.7,0c0-0.1,0-0.4,0.1-0.4c0.2,0,0.5,0,0.7,0C468.1,379.1,468,379.2,468,379.3z"/>
	<polygon class="st0" points="465.5,380.1 465.6,380.3 465.4,380.3 	"/>
	<path class="st8" d="M113.5,659.5c-0.1-0.8-0.2-1.6-0.3-2.5c-0.9-10-1.7-20-2.6-29.9c-0.2-2-0.3-3.9-0.5-5.9
		c-0.2-2.4-1.7-3-3.8-2.5c-8,1.7-15.9,3.4-23.9,5c-0.8,0.2-1.5,0.2-2.3,0.2c-0.2-0.3-0.3-0.6-0.5-0.9c20-14.7,40.1-29.4,60.1-44.1
		c0.2,0.2,0.4,0.3,0.6,0.5c-8.6,26.7-17.2,53.5-25.8,80.2C114.2,659.5,113.9,659.5,113.5,659.5z"/>
	<path class="st0" d="M85.9,659c-0.1,0.4-0.2,0.7-0.3,1.1c-0.3,0.2-0.6,0.4-0.8,0.6C85.1,660.1,85.5,659.5,85.9,659z"/>
</g>
</svg>
